<svg width="280" height="153" viewBox="0 0 280 153" fill="none" xmlns="http://www.w3.org/2000/svg">
<path d="M191.967 130.896C218.097 130.588 244.226 130.764 270.355 131.426C272.602 131.483 274.935 131.557 276.92 132.152C278.905 132.748 280.432 134.026 279.889 135.253C269.69 135.555 259.479 135.648 249.259 135.533C247.033 136.624 244.589 138.267 245.957 139.738C246.904 140.756 249.24 141.059 251.284 141.061C254.984 141.066 258.7 140.458 262.346 140.815C265.992 141.171 269.63 143.09 268.562 145.082C267.751 146.595 264.674 147.343 261.874 147.477C259.073 147.611 256.206 147.333 253.469 147.691C250.868 148.031 248.614 148.916 246.18 149.533C242.34 150.507 238.083 150.808 233.895 151.064C201.736 153.03 169.31 153.014 136.962 152.997C123.865 152.989 110.592 152.97 97.9452 151.057C90.7366 149.966 83.8288 148.273 76.5292 147.394C67.81 146.345 58.7985 146.487 49.8818 146.519C34.2282 146.574 18.5879 146.272 2.9607 145.613C1.79779 145.564 0.370343 145.398 0.0565049 144.767C-0.309754 144.03 1.17668 143.455 2.43312 143.161C9.55267 141.512 16.7919 140.431 24.0824 139.93C27.7747 139.67 31.5795 139.538 34.9754 138.682C38.3713 137.827 41.3381 136.034 41.3062 133.942C41.2965 133.304 41.0274 132.621 41.5596 132.058C42.2664 131.309 44.0053 131.137 45.5055 131.056C62.1371 130.151 78.8594 129.774 95.5664 129.925C101.443 129.979 107.344 130.097 113.18 129.701C117.961 129.376 122.644 128.71 127.356 128.151C133.681 127.4 161.207 123.51 165.223 126.666C168.229 129.029 162.023 129.539 170.085 130.503C177.104 131.342 184.848 130.98 191.967 130.896Z" fill="#F2F2F2"/>
<path d="M90.2413 120.105C90.2413 120.105 80.5511 139.29 88.7981 139.29C97.045 139.29 200.957 139.703 203.843 134.339C205.865 130.581 204.75 117.204 203.901 109.53C203.737 108.039 203.007 106.668 201.863 105.698C200.718 104.728 199.246 104.234 197.749 104.317C175.276 105.558 91.3194 110.158 91.6845 109.584C92.4061 108.449 91.8907 108.759 91.8907 108.759C91.8907 108.759 88.5919 119.28 90.2413 120.105Z" fill="#EB1700"/>
<path opacity="0.1" d="M204.108 109.53C203.943 108.039 203.213 106.668 202.069 105.698C200.924 104.728 199.452 104.234 197.955 104.317C175.482 105.558 91.5256 110.158 91.8907 109.584C92.6123 108.449 92.0968 108.759 92.0968 108.759C92.0968 108.759 91.3605 111.108 90.7576 113.672C90.843 113.664 90.9069 113.745 90.6285 114.235C90.6038 114.345 90.5794 114.456 90.5554 114.566C93.918 114.899 174.556 110.481 196.512 109.268C198.009 109.185 199.481 109.679 200.626 110.649C201.77 111.619 202.5 112.99 202.664 114.481C203.296 120.186 204.073 129.044 203.6 134.757C203.783 134.658 203.937 134.514 204.049 134.339C206.071 130.581 204.957 117.204 204.108 109.53Z" fill="black"/>
<path d="M101.791 91.3529C100.717 91.0235 99.3574 90.5981 99.4799 89.9045C99.545 89.536 100.038 89.2485 100.395 88.9395C101.083 88.3439 101.269 87.505 100.53 86.9298C99.7901 86.3545 98.0092 86.2776 97.3569 86.8863C97.0213 87.1995 97.0415 87.5922 96.8683 87.9458C96.3278 89.0492 94.1409 89.5336 92.2832 89.9623C90.4255 90.391 88.3469 91.1885 88.5216 92.33C88.7121 93.5752 91.578 94.6798 90.4249 95.7415C90.0067 96.1266 89.1271 96.3414 88.9399 96.7818C88.8082 97.0917 89.0728 97.4069 89.3296 97.6899L91.1545 99.7017C91.8806 100.502 92.6288 101.373 92.3856 102.264C91.9036 104.03 87.9856 104.706 84.8802 104.507C83.743 104.435 82.4063 104.335 81.6249 104.813C81.0226 105.182 81.0237 105.756 81.2238 106.247C81.739 107.511 83.3872 108.606 85.4966 109.086C83.1324 109.552 82.2039 111.519 83.8362 112.603C82.9021 112.925 81.8923 112.954 80.9413 112.686C80.134 113.43 80.6086 114.451 81.6325 115.101C82.6564 115.752 84.107 116.118 85.5115 116.465L84.1971 117.695C85.1483 118.438 87.2025 118.176 88.5877 117.706C89.9729 117.237 91.476 116.606 93.0281 116.852C94.4836 117.082 95.5846 118.054 97.0667 117.887C98.2153 117.758 98.7619 117.02 99.1197 116.382L100.641 113.672C102.806 114.011 105.083 112.527 104.213 111.343C106.637 111.603 109.022 110.029 108.226 108.694C109.517 109.69 110.425 110.847 110.87 112.06C111.068 112.602 111.189 113.175 111.73 113.635C112.084 113.898 112.494 114.076 112.927 114.154C113.361 114.233 113.807 114.21 114.231 114.087C113.789 114.945 113.431 115.945 114.339 116.672C115.247 117.4 117.867 117.193 117.751 116.302C119.136 116.897 120.688 117.457 122.418 117.501C124.149 117.546 126.043 116.887 126.2 115.9C128.639 116.705 131.19 117.116 133.758 117.117C133.977 116.457 135.502 116.243 136.643 116.405C137.783 116.566 138.841 116.954 140.016 116.954C141.191 116.955 142.455 116.248 141.853 115.67C144.327 116.188 146.867 116.316 149.38 116.05C151.752 115.798 153.999 115.2 156.4 115.071C158.835 114.922 161.274 115.308 163.545 116.2C164.333 116.53 165.311 116.946 166.176 116.687C166.666 116.54 166.905 116.223 167.238 115.97C168.672 114.881 171.605 115.09 173.867 115.518C176.13 115.946 178.762 116.461 180.744 115.705C181.492 115.419 182.044 114.978 182.839 114.738C185.69 113.88 189.101 116.08 192.127 115.447C193.112 115.241 193.911 114.747 194.955 114.687C196.806 114.579 198.029 115.834 199.829 116.104C201.697 116.384 203.721 115.247 203.266 114.174C205.061 114.214 206.85 113.965 208.566 113.437L207.719 111.91C209.831 111.876 211.385 110.361 210.406 109.289C212.525 108.886 214.2 107.799 214.636 106.546C215.071 105.294 214.25 103.923 212.562 103.087C211.566 102.593 210.259 102.246 209.689 101.566C209.279 101.076 209.339 100.507 209.18 99.9715C208.831 98.8001 207.318 97.7659 205.364 97.3626C204.515 97.1875 203.587 97.1209 202.818 96.8504C202.05 96.58 201.495 95.9941 201.938 95.5447C202.173 95.3068 202.625 95.1668 202.917 94.9508C204.103 94.075 202.07 92.9666 200.335 92.475L204.478 92.3394L205.368 88.3035C203.729 89.6374 199.477 89.3569 198.412 87.8445C199.743 88.2814 201.528 87.7227 202.178 86.9277C202.829 86.1328 202.669 85.2083 202.495 84.3362C202.479 84.1195 202.407 83.9108 202.286 83.7304C202.165 83.5501 201.999 83.4041 201.805 83.3068C201.399 83.1136 200.753 83.0329 200.62 82.7407C200.484 82.4426 201.009 82.179 201.087 81.8742C201.236 81.289 199.892 81.0311 198.984 80.7481C196.842 80.0805 195.805 78.2041 193.368 78.2651C190.95 78.3256 190.274 80.1728 190.273 81.5573C190.271 82.9417 189.453 84.7931 187.033 84.7679C186.067 84.7578 185.224 84.4102 184.453 84.0772L177.522 81.0864C176.606 80.6601 175.653 80.3183 174.676 80.0654C173.278 79.7389 171.733 79.7004 170.224 79.6661L160.529 79.4456C160.035 79.4068 159.538 79.4496 159.058 79.5721C158.549 79.7424 158.302 80.0776 157.995 80.3658C156.645 81.6341 153.471 82.1309 151.18 81.4324C150.573 81.2472 150.029 80.9918 149.385 80.8523C147.358 80.4127 145.231 81.226 143.124 81.5198C139.672 82.0014 135.381 81.1724 132.892 82.6234C132.062 83.1072 131.622 83.7686 130.853 84.2842C130.084 84.7998 128.696 85.1494 127.726 84.7601C127.848 85.7063 127.959 86.6936 127.319 87.5688C126.679 88.444 125.037 89.1583 123.424 88.9376C122.568 88.7112 122.635 87.9912 123.04 87.504C123.445 87.0167 124.066 86.5189 123.864 85.9918C123.664 85.469 122.747 85.165 122.062 84.8005C121.377 84.4361 120.92 83.7453 121.648 83.409C121.157 82.7783 119.394 82.8552 118.619 83.3841C117.843 83.913 117.766 84.6578 117.681 85.3464C117.597 86.035 117.413 86.7893 116.514 87.2501C114.983 88.0354 112.044 87.628 111.028 88.6509C110.705 88.9759 110.686 89.3679 110.502 89.7264C109.678 91.3264 106.122 91.7407 103.215 91.8713C103.153 92.2042 103.14 92.5441 103.174 92.8809C104.169 92.4502 102.512 91.5739 101.791 91.3529Z" fill="#61AB43"/>
<path opacity="0.1" d="M202.495 89.5252C202.669 90.3974 202.829 91.3219 202.178 92.1168C202.082 92.2316 201.972 92.3351 201.853 92.4253C202.728 92.3967 203.603 92.368 204.479 92.3394C204.775 90.9941 205.072 89.6488 205.368 88.3035C204.689 88.8561 203.561 89.1308 202.398 89.1564C202.439 89.2768 202.472 89.4001 202.495 89.5252Z" fill="black"/>
<path opacity="0.1" d="M203.26 94.2793C203.157 93.7337 202.258 93.18 201.251 92.7843C200.365 93.2054 199.357 93.2939 198.412 93.0337C199.146 94.0767 201.396 94.5335 203.26 94.2793Z" fill="black"/>
<path opacity="0.1" d="M204.547 97.22C204.524 97.3229 204.501 97.4257 204.479 97.5286C203.098 97.5737 201.717 97.6189 200.336 97.6642C202.07 98.1558 204.103 99.2642 202.917 100.14C202.625 100.356 202.173 100.496 201.938 100.734C201.495 101.183 202.05 101.769 202.818 102.04C203.587 102.31 204.515 102.377 205.364 102.552C207.318 102.955 208.831 103.989 209.18 105.161C209.339 105.696 209.279 106.265 209.689 106.755C210.259 107.435 211.567 107.782 212.562 108.276C212.658 108.323 212.751 108.373 212.841 108.424C213.741 107.915 214.388 107.258 214.636 106.546C215.071 105.294 214.25 103.923 212.562 103.087C211.567 102.593 210.259 102.246 209.689 101.566C209.279 101.076 209.339 100.507 209.18 99.9715C208.831 98.8002 207.318 97.7659 205.364 97.3627C205.097 97.3076 204.822 97.2633 204.547 97.22Z" fill="black"/>
<path opacity="0.1" d="M83.1663 115.806C83.4887 115.119 84.3125 114.508 85.4966 114.275C84.3653 114.04 83.2995 113.559 82.3746 112.866C81.8905 112.88 81.407 112.819 80.9413 112.686C80.134 113.43 80.6086 114.451 81.6325 115.101C82.1154 115.393 82.63 115.63 83.1663 115.806Z" fill="black"/>
<path opacity="0.1" d="M90.4742 95.6906C91.0642 95.4697 91.6686 95.2896 92.2832 95.1514C94.1409 94.7227 96.3278 94.2383 96.8683 93.1349C97.0416 92.7812 97.0213 92.3885 97.3569 92.0754C98.0092 91.4667 99.7902 91.5436 100.53 92.1188C101.269 92.694 101.083 93.533 100.395 94.1286C100.038 94.4376 99.545 94.7251 99.4799 95.0936C99.3574 95.7872 100.717 96.2125 101.791 96.5419C102.297 96.7047 102.77 96.9545 103.19 97.2801C103.199 97.2065 103.208 97.1332 103.215 97.0604C106.122 96.9298 109.678 96.5155 110.502 94.9155C110.687 94.557 110.706 94.165 111.028 93.84C112.044 92.8171 114.983 93.2245 116.514 92.4392C117.413 91.9784 117.597 91.2241 117.681 90.5355C117.766 89.8469 117.843 89.1021 118.619 88.5732C119.394 88.0443 121.157 87.9674 121.648 88.5981C120.92 88.9344 121.377 89.6252 122.062 89.9896C122.747 90.354 123.664 90.6581 123.864 91.1809C124.066 91.7079 123.445 92.2058 123.04 92.6931C122.635 93.1803 122.568 93.9003 123.424 94.1267C125.037 94.3474 126.679 93.6331 127.319 92.7579C127.959 91.8827 127.848 90.8954 127.726 89.9492C128.696 90.3385 130.084 89.9889 130.853 89.4733C131.622 88.9577 132.062 88.2963 132.892 87.8125C135.381 86.3615 139.672 87.1905 143.124 86.7089C145.231 86.4151 147.358 85.6018 149.385 86.0414C150.029 86.1809 150.573 86.4363 151.18 86.6215C153.471 87.32 156.645 86.8232 157.995 85.5549C158.302 85.2667 158.549 84.9315 159.058 84.7613C159.538 84.6387 160.035 84.5959 160.529 84.6347C163.761 84.7082 166.993 84.7817 170.224 84.8552C171.733 84.8895 173.278 84.928 174.676 85.2545C175.653 85.5074 176.606 85.8492 177.522 86.2755C179.832 87.2724 182.142 88.2694 184.453 89.2663C185.224 89.5993 186.067 89.9469 187.033 89.957C189.453 89.9823 190.271 88.1309 190.273 86.7464C190.274 85.3619 190.95 83.5147 193.368 83.4542C195.805 83.3932 196.842 85.2696 198.984 85.9372C199.892 86.2202 201.236 86.4781 201.087 87.0633C201.018 87.3348 200.595 87.5738 200.599 87.8334C201.202 87.6914 201.751 87.3767 202.178 86.9277C202.829 86.1328 202.669 85.2083 202.495 84.3362C202.479 84.1195 202.407 83.9108 202.286 83.7304C202.165 83.5501 201.999 83.4041 201.805 83.3068C201.399 83.1136 200.753 83.0329 200.62 82.7407C200.485 82.4426 201.009 82.179 201.087 81.8742C201.236 81.289 199.892 81.0311 198.984 80.7481C196.842 80.0805 195.805 78.2041 193.368 78.2651C190.95 78.3256 190.274 80.1728 190.273 81.5573C190.271 82.9417 189.453 84.7931 187.033 84.7679C186.067 84.7578 185.224 84.4102 184.453 84.0772C182.142 83.0803 179.832 82.0833 177.522 81.0864C176.606 80.6601 175.653 80.3183 174.676 80.0654C173.278 79.7389 171.733 79.7004 170.224 79.6661C166.993 79.5926 163.761 79.5191 160.529 79.4456C160.035 79.4068 159.538 79.4496 159.058 79.5722C158.549 79.7424 158.302 80.0776 157.995 80.3658C156.645 81.6341 153.471 82.1309 151.18 81.4324C150.573 81.2472 150.029 80.9918 149.385 80.8523C147.358 80.4127 145.231 81.226 143.124 81.5198C139.672 82.0014 135.381 81.1724 132.892 82.6234C132.062 83.1072 131.622 83.7686 130.853 84.2842C130.084 84.7998 128.696 85.1494 127.726 84.7601C127.848 85.7063 127.959 86.6936 127.319 87.5688C126.679 88.444 125.037 89.1583 123.424 88.9376C122.568 88.7112 122.635 87.9912 123.04 87.504C123.445 87.0167 124.066 86.5189 123.864 85.9918C123.664 85.469 122.747 85.165 122.062 84.8005C121.377 84.4361 120.92 83.7453 121.648 83.409C121.157 82.7783 119.394 82.8552 118.619 83.3841C117.843 83.913 117.766 84.6578 117.682 85.3464C117.597 86.035 117.413 86.7893 116.514 87.2501C114.983 88.0354 112.044 87.628 111.028 88.6509C110.706 88.9759 110.687 89.3679 110.502 89.7264C109.678 91.3264 106.122 91.7407 103.215 91.8713C103.208 91.9441 103.199 92.0174 103.19 92.091C102.77 91.7655 102.297 91.5156 101.791 91.3528C100.717 91.0235 99.3574 90.5981 99.4799 89.9045C99.545 89.536 100.038 89.2485 100.395 88.9395C101.083 88.3439 101.269 87.505 100.53 86.9297C99.7902 86.3545 98.0092 86.2776 97.3569 86.8863C97.0213 87.1994 97.0416 87.5921 96.8683 87.9458C96.3278 89.0492 94.1409 89.5336 92.2832 89.9623C90.4255 90.3909 88.347 91.1885 88.5216 92.33C88.7091 93.5553 91.4844 94.6445 90.4742 95.6906Z" fill="black"/>
<path opacity="0.1" d="M85.4966 109.086C84.9858 109.18 84.4977 109.371 84.0587 109.649C84.337 109.661 84.6141 109.679 84.8802 109.696C87.9857 109.895 91.9036 109.219 92.3856 107.453C92.6288 106.562 91.8807 105.691 91.1546 104.891C90.8627 104.569 90.5709 104.247 90.279 103.926C88.7597 104.442 86.6835 104.622 84.8802 104.507C83.743 104.434 82.4064 104.335 81.6249 104.813C81.0227 105.182 81.0237 105.756 81.2239 106.247C81.7391 107.511 83.3873 108.606 85.4966 109.086Z" fill="black"/>
<path d="M148.744 101.011C165.824 101.011 179.67 91.8668 179.67 80.5875C179.67 69.3081 165.824 60.1644 148.744 60.1644C131.664 60.1644 117.818 69.3081 117.818 80.5875C117.818 91.8668 131.664 101.011 148.744 101.011Z" fill="#EA565C"/>
<path opacity="0.2" d="M138.229 79.1434C138.229 79.1434 124.209 80.5875 128.333 74.605C132.456 68.6224 137.61 66.5595 140.084 68.2099C142.559 69.8602 143.589 74.3987 143.177 74.3987C142.765 74.3987 136.786 70.8917 134.724 73.5735C132.662 76.2553 138.229 79.1434 138.229 79.1434Z" fill="white"/>
<path opacity="0.2" d="M150.377 79.728C150.377 79.728 161.954 87.7703 154.931 89.6218C147.907 91.4733 142.653 89.6789 141.851 86.8142C141.048 83.9494 143.22 79.8341 143.533 80.1028C143.846 80.3716 146.099 86.9295 149.41 86.2386C152.72 85.5476 150.377 79.728 150.377 79.728Z" fill="white"/>
<path opacity="0.2" d="M153.079 74.688C153.079 74.688 153.993 60.6156 159.201 65.6809C164.409 70.7461 165.583 76.1752 163.545 78.341C161.506 80.5068 156.862 80.7674 156.93 80.3606C156.999 79.9538 161.452 74.6395 159.152 72.1584C156.853 69.6774 153.079 74.688 153.079 74.688Z" fill="white"/>
<path d="M111.426 99.3602C128.506 99.3602 142.352 90.2165 142.352 78.9371C142.352 67.6578 128.506 58.514 111.426 58.514C94.3463 58.514 80.5002 67.6578 80.5002 78.9371C80.5002 90.2165 94.3463 99.3602 111.426 99.3602Z" fill="#EA565C"/>
<path opacity="0.2" d="M100.911 77.493C100.911 77.493 86.8916 78.9371 91.0151 72.9546C95.1385 66.9721 100.293 64.9091 102.767 66.5595C105.241 68.2098 106.272 72.7483 105.86 72.7483C105.447 72.7483 99.4682 69.2413 97.4065 71.9231C95.3447 74.6049 100.911 77.493 100.911 77.493Z" fill="white"/>
<path opacity="0.2" d="M113.059 78.0778C113.059 78.0778 124.637 86.1201 117.613 87.9715C110.59 89.823 105.336 88.0287 104.533 85.1639C103.73 82.2992 105.903 78.1838 106.216 78.4526C106.529 78.7213 108.782 85.2793 112.092 84.5883C115.403 83.8973 113.059 78.0778 113.059 78.0778Z" fill="white"/>
<path opacity="0.2" d="M115.762 73.0376C115.762 73.0376 116.676 58.9652 121.884 64.0305C127.092 69.0958 128.266 74.5248 126.227 76.6906C124.188 78.8565 119.544 79.1171 119.613 78.7103C119.682 78.3035 124.134 72.9891 121.835 70.508C119.536 68.027 115.762 73.0376 115.762 73.0376Z" fill="white"/>
<path opacity="0.1" d="M127.52 61.5563C134.257 65.3026 138.538 70.9125 138.538 77.1836C138.538 88.463 124.692 97.6067 107.612 97.6067C101.76 97.6067 96.2871 96.5328 91.621 94.6676C97.0007 97.6596 103.945 99.4633 111.529 99.4633C128.609 99.4633 142.455 90.3196 142.455 79.0403C142.455 71.6258 136.472 65.1345 127.52 61.5563Z" fill="black"/>
<path opacity="0.1" d="M164.838 63.0002C171.574 66.7466 175.856 72.3565 175.856 78.6276C175.856 89.9069 162.009 99.0507 144.929 99.0507C139.077 99.0507 133.605 97.9768 128.938 96.1116C134.318 99.1035 141.263 100.907 148.847 100.907C165.927 100.907 179.773 91.7636 179.773 80.4842C179.773 73.0698 173.79 66.5785 164.838 63.0002Z" fill="black"/>
<path d="M92.6317 75.0245C92.6317 75.0245 119.228 46.556 184.379 58.3148C235.881 67.6101 193.589 83.609 173.609 89.9043C167.812 91.73 161.807 92.8118 155.738 93.1238C133.198 94.2852 76.5018 95.3234 92.6317 75.0245Z" fill="#714B4F"/>
<path opacity="0.1" d="M173.609 83.5092C167.812 85.3349 161.807 86.4167 155.738 86.7286C137.478 87.6695 96.8046 88.5289 90.5905 78.0296C82.7438 95 134.46 94.0138 155.738 92.9174C161.807 92.6055 167.812 91.5237 173.609 89.698C188.254 85.0836 214.885 75.2559 207.782 66.676C202.999 73.4094 184.803 79.9822 173.609 83.5092Z" fill="black"/>
<path opacity="0.1" d="M149.433 58.418L156.649 72.6522" stroke="black" stroke-width="2" stroke-miterlimit="10"/>
<path opacity="0.1" d="M127.166 63.5752L133.351 75.5402" stroke="black" stroke-width="2" stroke-miterlimit="10"/>
<path opacity="0.1" d="M162.422 58.418L172.112 72.6522" stroke="black" stroke-width="2" stroke-miterlimit="10"/>
<path opacity="0.1" d="M127.166 76.778L192.111 68.5262" stroke="black" stroke-width="2" stroke-miterlimit="10"/>
<path opacity="0.1" d="M189.636 61.0997L194.172 67.4948" stroke="black" stroke-width="2" stroke-miterlimit="10"/>
<path opacity="0.1" d="M114.383 68.5262L117.269 74.5088" stroke="black" stroke-width="2" stroke-miterlimit="10"/>
<path d="M124.077 49.1457C124.077 49.1457 183.385 48.8772 183.929 48.3403C184.473 47.8034 196.988 47.5189 199.436 51.009C201.885 54.4991 202.701 56.1099 199.436 56.6468C196.172 57.1838 88.7104 112.22 88.7104 112.22C88.7104 112.22 82.7252 112.757 85.7178 106.85C88.7104 100.944 124.077 49.1457 124.077 49.1457Z" fill="#F6C964"/>
<path d="M148.976 73.6935C148.976 75.9152 138.269 81.3264 125.06 81.3264C111.852 81.3264 101.144 75.9152 101.144 73.6935C101.144 71.4718 111.852 70.5991 125.06 70.5991C138.269 70.5991 148.976 71.4718 148.976 73.6935Z" fill="#61AB43"/>
<path d="M125.06 77.6131C138.269 77.6131 148.976 75.812 148.976 73.5904C148.976 71.3687 138.269 69.5676 125.06 69.5676C111.852 69.5676 101.144 71.3687 101.144 73.5904C101.144 75.812 111.852 77.6131 125.06 77.6131Z" fill="#61AB43"/>
<path d="M177.841 69.9803C177.841 72.202 167.133 77.6131 153.925 77.6131C140.716 77.6131 130.009 72.202 130.009 69.9803C130.009 67.7586 140.716 66.8859 153.925 66.8859C167.133 66.8859 177.841 67.7586 177.841 69.9803Z" fill="#61AB43"/>
<path d="M153.925 73.8998C167.133 73.8998 177.841 72.0988 177.841 69.8771C177.841 67.6554 167.133 65.8544 153.925 65.8544C140.716 65.8544 130.009 67.6554 130.009 69.8771C130.009 72.0988 140.716 73.8998 153.925 73.8998Z" fill="#61AB43"/>
<path d="M206.705 66.267C206.705 68.4887 195.998 73.8999 182.789 73.8999C169.58 73.8999 158.873 68.4887 158.873 66.267C158.873 64.0453 169.58 63.1726 182.789 63.1726C195.998 63.1726 206.705 64.0453 206.705 66.267Z" fill="#61AB43"/>
<path d="M182.789 70.1866C195.998 70.1866 206.705 68.3855 206.705 66.1638C206.705 63.9421 195.998 62.1411 182.789 62.1411C169.58 62.1411 158.873 63.9421 158.873 66.1638C158.873 68.3855 169.58 70.1866 182.789 70.1866Z" fill="#61AB43"/>
<path d="M94.7103 67.4099C94.7103 67.4099 84.874 65.8077 89.9065 57.7967C94.939 49.7858 96.6317 40.8056 98.8278 38.7993C101.283 36.5563 151.959 -2.77021 191.438 40.7468C195.62 45.4121 199.02 50.7242 201.505 56.4769C201.983 57.5645 202.509 58.5406 203.024 59.0556C204.625 60.6578 205.998 65.2355 203.024 67.5243C200.05 69.8131 112.439 78.7396 94.7103 67.4099Z" fill="#EB1700"/>
<path d="M140.804 34.1072C140.197 34.529 139.483 34.7673 138.745 34.7938C137.608 34.7938 136.686 34.4864 136.686 34.1072C136.686 33.728 137.608 33.4205 138.745 33.4205C139.483 33.447 140.197 33.6854 140.804 34.1072Z" fill="#F2F2F2"/>
<path d="M124.334 29.7584C123.727 30.1802 123.013 30.4186 122.275 30.4451C121.138 30.4451 120.216 30.1377 120.216 29.7584C120.216 29.3792 121.138 29.0718 122.275 29.0718C123.013 29.0983 123.727 29.3367 124.334 29.7584Z" fill="#F2F2F2"/>
<path d="M169.075 36.0956C168.371 36.317 167.617 36.331 166.905 36.1359C165.82 35.7962 165.032 35.2274 165.145 34.8655C165.258 34.5036 166.23 34.4855 167.315 34.8252C168.011 35.0709 168.622 35.5119 169.075 36.0956Z" fill="#F2F2F2"/>
<path d="M138.651 24.4225C137.947 24.6439 137.193 24.6579 136.481 24.4628C135.396 24.1231 134.608 23.5543 134.721 23.1924C134.834 22.8305 135.806 22.8124 136.891 23.1521C137.587 23.3978 138.198 23.8388 138.651 24.4225Z" fill="#F2F2F2"/>
<path d="M171.82 28.5423C171.116 28.7638 170.362 28.7778 169.65 28.5826C168.565 28.243 167.777 27.6742 167.89 27.3123C168.003 26.9503 168.975 26.9323 170.06 27.272C170.756 27.5177 171.367 27.9587 171.82 28.5423Z" fill="#F2F2F2"/>
<path d="M165.051 27.9274C164.445 28.3491 163.73 28.5875 162.993 28.614C161.856 28.614 160.934 28.3066 160.934 27.9274C160.934 27.5481 161.856 27.2407 162.993 27.2407C163.73 27.2672 164.445 27.5056 165.051 27.9274Z" fill="#F2F2F2"/>
<path d="M145.379 23.8074C144.773 24.2292 144.058 24.4675 143.32 24.494C142.183 24.494 141.261 24.1866 141.261 23.8074C141.261 23.4281 142.183 23.1207 143.32 23.1207C144.058 23.1472 144.773 23.3856 145.379 23.8074Z" fill="#F2F2F2"/>
<path d="M160.476 23.8074C159.87 24.2292 159.155 24.4675 158.418 24.494C157.281 24.494 156.359 24.1866 156.359 23.8074C156.359 23.4281 157.281 23.1207 158.418 23.1207C159.155 23.1472 159.87 23.3856 160.476 23.8074Z" fill="#F2F2F2"/>
<path d="M154.758 32.7339C154.151 33.1557 153.437 33.394 152.699 33.4205C151.562 33.4205 150.64 33.1131 150.64 32.7339C150.64 32.3547 151.562 32.0472 152.699 32.0472C153.437 32.0737 154.151 32.3121 154.758 32.7339Z" fill="#F2F2F2"/>
<path d="M138.124 31.1298C138.295 30.4113 138.67 29.7573 139.203 29.246C140.051 28.4886 140.944 28.104 141.196 28.3869C141.448 28.6699 140.965 29.5133 140.117 30.2707C139.549 30.7425 138.857 31.0407 138.124 31.1298Z" fill="#F2F2F2"/>
<path d="M127.83 28.6121C128.002 27.8936 128.376 27.2396 128.909 26.7283C129.758 25.9709 130.65 25.5863 130.902 25.8692C131.155 26.1522 130.671 26.9956 129.823 27.753C129.255 28.2248 128.563 28.523 127.83 28.6121Z" fill="#F2F2F2"/>
<path d="M109.987 40.9718C110.159 40.2533 110.534 39.5994 111.067 39.088C111.915 38.3306 112.807 37.946 113.06 38.229C113.312 38.5119 112.829 39.3553 111.98 40.1128C111.412 40.5845 110.72 40.8827 109.987 40.9718Z" fill="#F2F2F2"/>
<path d="M149.561 27.2388C149.733 26.5203 150.108 25.8663 150.641 25.355C151.489 24.5976 152.381 24.213 152.634 24.4959C152.886 24.7789 152.403 25.6223 151.554 26.3797C150.986 26.8515 150.294 27.1497 149.561 27.2388Z" fill="#F2F2F2"/>
<path d="M145.444 35.4787C145.615 34.7601 145.99 34.1062 146.523 33.5949C147.371 32.8375 148.264 32.4528 148.516 32.7358C148.768 33.0188 148.285 33.8622 147.437 34.6196C146.869 35.0914 146.177 35.3896 145.444 35.4787Z" fill="#F2F2F2"/>
<path opacity="0.2" d="M51.9361 136.926C48.5096 136.954 43.9745 136.392 43.0616 135.836C42.3663 135.412 42.0893 133.891 41.9966 133.19C41.9324 133.193 41.8953 133.194 41.8953 133.194C41.8953 133.194 42.0875 135.643 43.0004 136.199C43.9133 136.756 48.4485 137.317 51.875 137.29C52.8641 137.282 53.2057 136.93 53.187 136.408C53.0496 136.723 52.6724 136.92 51.9361 136.926Z" fill="black"/>
</svg>
