<svg width="171" height="116" viewBox="0 0 171 116" fill="none" xmlns="http://www.w3.org/2000/svg">
<g clip-path="url(#clip0_208_321)">
<path d="M62.7386 111.347C55.9077 108.198 50.3009 101.553 50.1416 94.0238C56.6118 99.0323 64.6424 101.587 72.8124 101.237C75.9627 101.09 79.4515 100.598 81.9813 102.484C83.5554 103.658 84.4339 105.583 84.7497 107.523C85.0654 109.462 84.8803 111.445 84.6945 113.401L84.8777 113.856C77.4028 114.677 69.5695 114.496 62.7386 111.347Z" fill="#F0F0F0"/>
<path d="M50.2975 93.9991C53.4681 99.3635 58.2459 103.591 63.952 106.081C65.1709 106.639 66.47 107.001 67.8014 107.154C69.1032 107.26 70.4098 107.016 71.5855 106.446C72.6923 105.937 73.7656 105.287 74.9768 105.056C75.5985 104.947 76.2363 104.971 76.8482 105.126C77.4601 105.281 78.0324 105.564 78.5275 105.956C79.7864 106.901 80.6313 108.243 81.412 109.584C82.2788 111.072 83.1557 112.632 84.6196 113.614C84.797 113.733 84.6024 114.001 84.4253 113.883C81.8782 112.175 81.15 108.94 79.0358 106.835C78.0493 105.853 76.7612 105.163 75.336 105.336C74.0898 105.487 72.9824 106.156 71.8662 106.681C70.7274 107.254 69.4659 107.539 68.1919 107.511C66.857 107.427 65.5462 107.116 64.3155 106.591C61.5261 105.453 58.9326 103.884 56.63 101.94C53.9897 99.7356 51.7454 97.0953 49.9942 94.133C49.8858 93.9497 50.1899 93.8169 50.2975 93.9991L50.2975 93.9991Z" fill="white"/>
<path d="M62.0675 105.387C61.5204 106.29 60.671 106.968 59.6708 107.3C58.6707 107.633 57.5851 107.599 56.6077 107.204C56.4103 107.123 56.526 106.812 56.7238 106.893C57.6332 107.262 58.6445 107.294 59.5751 106.982C60.5058 106.671 61.2946 106.036 61.799 105.193C61.9089 105.01 62.1767 105.205 62.0675 105.387V105.387Z" fill="white"/>
<path d="M71.0582 106.778C70.5658 104.678 69.3009 102.84 67.5159 101.632C67.339 101.513 67.5335 101.244 67.7102 101.364C69.5654 102.624 70.8778 104.539 71.3855 106.726C71.4337 106.934 71.1062 106.986 71.0582 106.778V106.778Z" fill="white"/>
<path d="M54.3821 99.5374C54.6664 99.2326 54.8706 98.8617 54.9765 98.4583C55.0823 98.0548 55.0865 97.6313 54.9885 97.2258C54.9376 97.0181 55.2652 96.9669 55.3157 97.1733C55.4219 97.6218 55.4167 98.0895 55.3008 98.5355C55.1848 98.9816 54.9616 99.3924 54.6505 99.7321C54.6239 99.7666 54.5852 99.7896 54.5422 99.7965C54.4992 99.8034 54.4552 99.7936 54.4191 99.7692C54.3837 99.7433 54.36 99.7044 54.353 99.661C54.3461 99.6176 54.3565 99.5732 54.3821 99.5374Z" fill="white"/>
<path d="M69.4136 77.36C69.449 77.4888 69.4844 77.6176 69.5225 77.7474C70.0079 79.477 70.6328 81.1642 71.3911 82.7924C71.4477 82.9192 71.507 83.0469 71.5671 83.1718C73.4357 87.075 76.0115 90.5968 79.1637 93.5582C80.4191 94.7354 81.7621 95.8153 83.1811 96.7885C85.1409 98.1324 87.3725 99.4334 88.7345 101.292C88.8787 101.485 89.011 101.686 89.1304 101.895L85.4178 113.597C85.396 113.619 85.3769 113.643 85.355 113.665L85.2281 114.139C85.1515 114.094 85.0729 114.046 84.9962 114.001C84.9516 113.975 84.9079 113.946 84.8633 113.92C84.8338 113.902 84.8044 113.884 84.7767 113.869C84.7669 113.863 84.7571 113.857 84.7499 113.852C84.7223 113.837 84.6982 113.821 84.6733 113.807C84.2333 113.537 83.7946 113.265 83.3569 112.988C83.3542 112.987 83.3542 112.987 83.3524 112.984C80.023 110.869 76.8406 108.457 74.125 105.638C74.0433 105.553 73.9589 105.468 73.8789 105.377C72.6618 104.1 71.5511 102.725 70.5577 101.266C70.0163 100.466 69.5157 99.6385 69.0579 98.7873C67.8791 96.5857 67.0534 94.2121 66.611 91.7535C65.73 86.8521 66.4239 81.7232 69.1985 77.6677C69.2696 77.5641 69.3398 77.4628 69.4136 77.36Z" fill="#F0F0F0"/>
<path d="M69.5535 77.4336C68.8603 83.6286 70.1338 89.8849 73.193 95.3138C73.8308 96.4943 74.6505 97.5666 75.6217 98.4914C76.597 99.3617 77.7871 99.9545 79.0684 100.208C80.2584 100.469 81.5057 100.598 82.6117 101.143C83.1737 101.431 83.6686 101.835 84.0639 102.328C84.4593 102.821 84.7461 103.391 84.9057 104.003C85.3429 105.517 85.2109 107.098 85.0282 108.639C84.8254 110.35 84.5876 112.125 85.1666 113.791C85.2367 113.993 84.9198 114.09 84.8498 113.888C83.8426 110.989 85.2057 107.967 84.7829 105.012C84.5857 103.633 83.9723 102.305 82.7304 101.583C81.6444 100.953 80.3583 100.819 79.1511 100.565C77.8975 100.336 76.719 99.803 75.7186 99.0124C74.7034 98.1401 73.8439 97.1012 73.1768 95.9401C71.6333 93.35 70.5059 90.533 69.8361 87.5923C69.0531 84.2403 68.8484 80.7788 69.2308 77.3576C69.2546 77.1459 69.5771 77.2232 69.5535 77.4336H69.5535Z" fill="white"/>
<path d="M72.1052 93.6238C71.1261 94.0142 70.0403 94.0433 69.0417 93.7059C68.0431 93.3686 67.1968 92.6866 66.6539 91.782C66.5446 91.5986 66.8241 91.42 66.9335 91.6036C67.4375 92.447 68.2259 93.0821 69.1564 93.3944C70.0869 93.7066 71.0982 93.6755 72.0078 93.3065C72.2056 93.2266 72.3018 93.5443 72.1052 93.6238Z" fill="white"/>
<path d="M78.4477 100.156C79.3172 98.1816 79.4118 95.9518 78.7128 93.9109C78.6433 93.7088 78.9602 93.6115 79.0296 93.8134C79.7531 95.9386 79.6498 98.2588 78.7405 100.311C78.6537 100.507 78.3613 100.35 78.4477 100.156Z" fill="white"/>
<path d="M69.4856 84.3186C69.8958 84.2466 70.2818 84.0737 70.6089 83.8153C70.936 83.557 71.1938 83.2214 71.3594 82.8386C71.4436 82.642 71.736 82.7987 71.6522 82.994C71.4674 83.4161 71.1821 83.7864 70.8214 84.0726C70.4607 84.3588 70.0355 84.5522 69.5829 84.6359C69.5409 84.6473 69.4961 84.6424 69.4577 84.6219C69.4192 84.6015 69.39 84.5672 69.3758 84.526C69.3632 84.4839 69.3676 84.4385 69.3881 84.3997C69.4087 84.3608 69.4437 84.3317 69.4856 84.3186Z" fill="white"/>
<path d="M158.237 110.787C157.538 112.24 156.614 113.575 155.501 114.741C155.251 115.002 154.994 115.255 154.73 115.499C154.547 115.67 154.36 115.836 154.169 116H141.225C141.236 115.832 141.255 115.665 141.28 115.499C141.363 114.961 141.55 114.445 141.833 113.979C142.909 112.245 145.122 111.713 147.051 111.054C147.511 110.896 147.967 110.723 148.415 110.534C148.993 110.292 149.56 110.025 150.113 109.734C152.586 108.436 154.797 106.688 156.634 104.582C156.693 104.514 156.75 104.447 156.806 104.377C157.56 103.493 158.241 102.549 158.843 101.555C158.889 101.483 158.931 101.41 158.975 101.336C159.002 101.412 159.03 101.49 159.057 101.565C160.087 104.573 159.633 107.888 158.237 110.787Z" fill="#F0F0F0"/>
<path d="M159.091 101.365C159.08 101.433 159.07 101.5 159.057 101.565C158.809 103.019 158.397 104.44 157.828 105.8C157.566 106.427 157.272 107.039 156.947 107.636C156.317 108.796 155.57 109.888 154.717 110.896C154.671 110.951 154.623 111.005 154.576 111.06C154.211 111.479 153.828 111.877 153.427 112.256C152.811 112.863 152.097 113.361 151.315 113.729C150.679 114.001 149.993 114.134 149.302 114.116C149.171 114.116 149.041 114.11 148.909 114.101C148.379 114.068 147.837 113.996 147.303 114.011C147.034 114.014 146.766 114.05 146.505 114.116C146.147 114.222 145.815 114.399 145.528 114.637C145.241 114.874 145.005 115.168 144.834 115.499C144.76 115.628 144.693 115.761 144.634 115.897C144.619 115.931 144.605 115.966 144.592 116H144.361C144.426 115.828 144.502 115.661 144.588 115.499C144.632 115.413 144.68 115.329 144.731 115.246C144.936 114.893 145.213 114.588 145.545 114.349C145.876 114.111 146.254 113.946 146.654 113.864C146.896 113.819 147.143 113.797 147.389 113.798C147.934 113.79 148.48 113.866 149.022 113.895C149.079 113.897 149.136 113.902 149.192 113.902C149.264 113.904 149.337 113.904 149.409 113.904C150.122 113.904 150.825 113.739 151.464 113.422C152.228 113.013 152.924 112.488 153.526 111.864C153.852 111.542 154.165 111.205 154.463 110.858C154.478 110.843 154.49 110.829 154.503 110.814C155.784 109.321 156.824 107.637 157.588 105.823C157.617 105.758 157.645 105.693 157.672 105.628C158.211 104.317 158.603 102.951 158.843 101.555C158.855 101.49 158.866 101.422 158.876 101.357C158.897 101.222 159.112 101.231 159.091 101.365Z" fill="white"/>
<path d="M154.494 110.999C155.036 111.412 155.708 111.618 156.388 111.58C157.068 111.543 157.712 111.265 158.207 110.795C158.306 110.7 158.163 110.54 158.063 110.636C157.604 111.074 157.003 111.333 156.37 111.366C155.737 111.4 155.112 111.205 154.609 110.818C154.5 110.734 154.385 110.915 154.494 110.999V110.999Z" fill="white"/>
<path d="M149.417 113.969C149.216 112.589 149.542 111.184 150.329 110.034C150.408 109.92 150.227 109.805 150.149 109.919C149.332 111.117 148.996 112.58 149.208 114.015C149.228 114.152 149.437 114.105 149.417 113.969V113.969Z" fill="white"/>
<path d="M157.731 105.657C157.488 105.542 157.277 105.367 157.118 105.15C156.959 104.932 156.856 104.678 156.819 104.411C156.801 104.274 156.592 104.321 156.61 104.457C156.652 104.752 156.766 105.032 156.941 105.273C157.117 105.514 157.348 105.708 157.616 105.838C157.64 105.853 157.668 105.857 157.696 105.851C157.723 105.845 157.748 105.829 157.763 105.806C157.779 105.782 157.784 105.752 157.778 105.725C157.771 105.697 157.755 105.673 157.731 105.657V105.657Z" fill="white"/>
<path d="M148.73 108.69C148.654 109.313 148.549 109.926 148.415 110.534V110.536C148.162 111.649 147.819 112.739 147.389 113.796V113.798C147.362 113.872 147.333 113.942 147.303 114.011C147.095 114.514 146.87 115.009 146.631 115.499C146.549 115.668 146.465 115.834 146.378 116H137.945L137.537 115.499L137.394 115.322C137.417 115.168 137.449 115.016 137.491 114.866C137.869 113.424 138.903 112.113 139.765 110.839C140.388 109.917 140.939 108.949 141.415 107.943C142.61 105.415 143.327 102.687 143.527 99.8964C143.533 99.8059 143.537 99.7154 143.541 99.6249C143.612 98.4659 143.589 97.3031 143.472 96.1478V96.1436C143.464 96.0594 143.455 95.9731 143.445 95.8889C143.512 95.9352 143.579 95.9773 143.644 96.0215C143.645 96.0215 143.645 96.0216 143.645 96.0217C143.645 96.0218 143.646 96.0219 143.646 96.0221C143.646 96.0223 143.646 96.0225 143.646 96.0228C143.646 96.0231 143.646 96.0233 143.646 96.0236H143.648C146.269 97.8001 147.9 100.711 148.532 103.86C148.535 103.866 148.535 103.872 148.537 103.879C148.852 105.463 148.917 107.086 148.73 108.69Z" fill="#F0F0F0"/>
<path d="M145.792 106.093C145.788 106.164 145.784 106.234 145.777 106.305C145.737 106.859 145.672 107.41 145.58 107.956C145.452 108.812 145.181 109.64 144.777 110.405C144.434 111.006 143.965 111.525 143.403 111.927C143.298 112.007 143.19 112.083 143.081 112.155C142.415 112.592 141.673 112.98 141.169 113.615C140.762 114.154 140.574 114.827 140.643 115.499C140.654 115.667 140.677 115.835 140.711 116H140.494C140.466 115.864 140.446 115.726 140.433 115.587C140.431 115.558 140.429 115.528 140.427 115.499C140.391 115.107 140.435 114.712 140.557 114.337C140.679 113.963 140.877 113.618 141.137 113.323C141.673 112.731 142.392 112.359 143.045 111.919C143.094 111.887 143.14 111.854 143.186 111.82C143.245 111.78 143.304 111.736 143.361 111.691C143.932 111.264 144.395 110.708 144.712 110.069C145.077 109.283 145.316 108.444 145.42 107.583C145.485 107.128 145.534 106.672 145.567 106.215C145.567 106.194 145.569 106.175 145.569 106.154V106.152C145.693 104.188 145.514 102.217 145.038 100.309C145.019 100.239 145 100.172 144.983 100.103C144.627 98.7325 144.12 97.4061 143.472 96.1477V96.1435C143.44 96.0846 143.411 96.0256 143.38 95.9667C143.314 95.8467 143.491 95.7225 143.554 95.8446C143.585 95.9036 143.615 95.9625 143.644 96.0214C143.645 96.0214 143.645 96.0215 143.645 96.0216C143.645 96.0217 143.646 96.0218 143.646 96.022C143.646 96.0222 143.646 96.0225 143.646 96.0227C143.646 96.023 143.646 96.0233 143.646 96.0235C144.329 97.3424 144.856 98.7359 145.218 100.176C145.384 100.824 145.515 101.48 145.611 102.142C145.806 103.449 145.867 104.773 145.792 106.093Z" fill="white"/>
<path d="M145.675 106.308C146.356 106.31 147.016 106.07 147.537 105.63C148.057 105.19 148.405 104.579 148.517 103.907C148.539 103.77 148.329 103.729 148.307 103.866C148.203 104.493 147.879 105.062 147.394 105.47C146.908 105.879 146.293 106.1 145.659 106.094C145.521 106.093 145.538 106.307 145.675 106.308V106.308Z" fill="white"/>
<path d="M143.407 111.741C142.417 110.76 141.833 109.442 141.77 108.049C141.764 107.911 141.55 107.927 141.556 108.065C141.624 109.515 142.235 110.885 143.268 111.904C143.366 112.001 143.505 111.837 143.407 111.741Z" fill="white"/>
<path d="M145.049 100.091C144.785 100.145 144.512 100.133 144.254 100.055C143.996 99.9774 143.762 99.8368 143.572 99.6459C143.474 99.5477 143.336 99.7113 143.432 99.8088C143.643 100.019 143.903 100.174 144.187 100.26C144.472 100.347 144.773 100.362 145.065 100.305C145.093 100.302 145.119 100.288 145.137 100.267C145.155 100.245 145.165 100.218 145.164 100.19C145.161 100.161 145.148 100.135 145.126 100.117C145.105 100.098 145.077 100.089 145.049 100.091Z" fill="white"/>
<path d="M0.877264 24.7434C1.08103 17.2148 4.97485 9.43843 11.8241 6.32996C9.77159 14.2579 10.5851 22.6574 14.1207 30.0425C15.4946 32.8856 17.3182 35.9046 16.582 38.976C16.1239 40.8871 14.7024 42.4532 13.0461 43.5069C11.3896 44.5607 9.49704 45.17 7.62786 45.7686L7.28225 46.1163C3.58815 39.5563 0.673503 32.272 0.877264 24.7434Z" fill="#F0F0F0"/>
<path d="M11.908 6.46387C8.23091 11.4935 6.22962 17.5557 6.18842 23.7894C6.15577 25.1313 6.3345 26.4698 6.71803 27.7559C7.13206 28.9966 7.87027 30.1036 8.85595 30.962C9.75896 31.7808 10.7773 32.5136 11.4659 33.538C11.8105 34.0676 12.0395 34.6642 12.1379 35.2886C12.2362 35.9131 12.2016 36.5513 12.0364 37.1614C11.6641 38.6924 10.7648 39.9982 9.84111 41.2445C8.81548 42.6282 7.72828 44.0493 7.4032 45.7833C7.36381 45.9935 7.04061 45.92 7.07993 45.7102C7.64551 42.6932 10.3285 40.7502 11.4291 37.9754C11.9427 36.6807 12.0698 35.2231 11.3504 33.9788C10.7214 32.8907 9.67187 32.1341 8.7504 31.313C7.77658 30.4898 7.01883 29.4403 6.54335 28.2562C6.09567 26.9938 5.86575 25.6643 5.86343 24.3247C5.81018 21.3089 6.23071 18.3034 7.10963 15.4184C8.0945 12.1202 9.63545 9.01504 11.6658 6.23726C11.7915 6.06539 12.033 6.29311 11.9081 6.46387H11.908Z" fill="white"/>
<path d="M6.08372 21.7813C5.04039 21.6324 4.08388 21.1169 3.38501 20.3269C2.68614 19.5369 2.29041 18.5238 2.26851 17.4685C2.26481 17.255 2.59595 17.2392 2.59966 17.453C2.61825 18.4357 2.98696 19.3794 3.63925 20.1137C4.29153 20.8481 5.18443 21.3247 6.15678 21.4576C6.36805 21.4867 6.29378 21.8103 6.08372 21.7813V21.7813Z" fill="white"/>
<path d="M8.3435 30.6071C10.078 29.3274 11.2672 27.44 11.6739 25.3212C11.7141 25.1112 12.0373 25.1846 11.9972 25.3944C11.5698 27.5985 10.3283 29.5601 8.52042 30.8878C8.34802 31.0143 8.17203 30.7329 8.3435 30.6071Z" fill="white"/>
<path d="M8.43083 12.4034C8.82253 12.5453 9.24328 12.5875 9.65529 12.5262C10.0673 12.465 10.4577 12.3022 10.7913 12.0525C10.9621 11.9239 11.1379 12.2055 10.9683 12.3332C10.5983 12.6073 10.167 12.7866 9.71193 12.8553C9.25687 12.9239 8.79194 12.88 8.35777 12.7272C8.31563 12.7162 8.27925 12.6896 8.25601 12.6527C8.23278 12.6158 8.22443 12.5715 8.23266 12.5287C8.24255 12.4859 8.26892 12.4487 8.30603 12.4252C8.34313 12.4018 8.38799 12.3939 8.43084 12.4034L8.43083 12.4034Z" fill="white"/>
<path d="M34.7018 17.5208C34.5975 17.6041 34.4931 17.6874 34.3889 17.7735C32.9922 18.9008 31.6892 20.1399 30.4929 21.4786C30.3987 21.5806 30.3049 21.6854 30.2138 21.7899C27.3658 25.0458 25.1461 28.803 23.6676 32.8704C23.0807 34.4895 22.6177 36.1509 22.2825 37.8403C21.8197 40.1735 21.5033 42.7402 20.3325 44.7255C20.2126 44.934 20.08 45.1349 19.9354 45.327L7.73259 46.5116C7.70351 46.5004 7.67456 46.4919 7.64535 46.4807L7.16029 46.5503C7.1715 46.4619 7.18502 46.3706 7.19622 46.2822C7.20251 46.2309 7.21152 46.1794 7.21781 46.1281C7.22287 46.0939 7.22806 46.0596 7.23066 46.0284C7.2323 46.017 7.23408 46.0055 7.23599 45.9969C7.23859 45.9657 7.24432 45.937 7.24719 45.9086C7.32138 45.3976 7.39827 44.8863 7.48088 44.3744C7.48062 44.3717 7.48062 44.3716 7.48307 44.3686C8.11484 40.471 9.07706 36.5919 10.5965 32.9825C10.6423 32.8739 10.6876 32.7625 10.739 32.6534C11.4329 31.0302 12.2581 29.4666 13.2064 27.9781C13.7283 27.1647 14.2909 26.3783 14.8922 25.6219C16.4495 23.6704 18.3036 21.9764 20.3866 20.602C24.5393 17.8628 29.5205 16.4842 34.3347 17.4438C34.4578 17.4685 34.5784 17.4934 34.7018 17.5208Z" fill="#F0F0F0"/>
<path d="M34.6893 17.6785C28.7298 19.4771 23.4876 23.1107 19.7074 28.0631C18.8747 29.1148 18.2127 30.2913 17.7458 31.5494C17.3306 32.7897 17.2545 34.1188 17.5255 35.3985C17.7543 36.5967 18.1269 37.7959 18.0609 39.029C18.0177 39.6597 17.8419 40.2742 17.545 40.832C17.2481 41.3899 16.8368 41.8787 16.3381 42.2662C15.1206 43.2641 13.6176 43.7644 12.1309 44.2025C10.4801 44.6889 8.75781 45.168 7.45583 46.3565C7.29808 46.5005 7.08419 46.2469 7.24171 46.1031C9.50693 44.0353 12.8171 44.1017 15.3639 42.5499C16.5523 41.8258 17.5301 40.7386 17.7037 39.3114C17.8555 38.0633 17.4724 36.8264 17.2303 35.6151C16.9476 34.3706 16.9735 33.0757 17.3056 31.8436C17.7071 30.5657 18.3227 29.3655 19.1261 28.2945C20.8966 25.8544 23.039 23.7083 25.4751 21.9348C28.2442 19.8952 31.3412 18.3451 34.6321 17.3515C34.8359 17.2901 34.8917 17.6175 34.6894 17.6785L34.6893 17.6785Z" fill="white"/>
<path d="M20.8309 26.3968C20.0874 25.6487 19.6335 24.6604 19.5504 23.6082C19.4673 22.556 19.7604 21.5084 20.3773 20.6527C20.5027 20.4799 20.7766 20.667 20.651 20.84C20.0751 21.6358 19.8022 22.6116 19.8816 23.5913C19.961 24.5709 20.3874 25.4899 21.0839 26.1823C21.235 26.333 20.9812 26.5465 20.8309 26.3968V26.3968Z" fill="white"/>
<path d="M17.3297 34.8062C19.4838 34.8304 21.568 34.0404 23.1664 32.5939C23.3247 32.4505 23.5386 32.704 23.3806 32.8473C21.7143 34.3495 19.5438 35.1671 17.3022 35.137C17.0885 35.134 17.1171 34.8032 17.3296 34.8062H17.3297Z" fill="white"/>
<path d="M28.3424 20.3243C28.5699 20.6737 28.8805 20.9611 29.2462 21.1607C29.612 21.3602 30.0216 21.4656 30.4381 21.4675C30.6517 21.4678 30.6228 21.7986 30.4106 21.7983C29.9504 21.7941 29.4983 21.6771 29.0937 21.4576C28.689 21.238 28.3443 20.9225 28.0894 20.5387C28.0624 20.5046 28.0493 20.4614 28.053 20.4179C28.0566 20.3745 28.0766 20.334 28.1089 20.3048C28.1425 20.2766 28.1859 20.2628 28.2296 20.2664C28.2734 20.2701 28.3139 20.2909 28.3424 20.3243Z" fill="white"/>
<path d="M121.383 115.585H86.4958C84.546 115.583 82.6766 114.806 81.2978 113.425C79.919 112.044 79.1435 110.172 79.1413 108.219V54.3351C79.1435 52.3823 79.919 50.51 81.2978 49.1291C82.6766 47.7482 84.546 46.9714 86.4958 46.9692H121.383C123.333 46.9714 125.202 47.7482 126.581 49.1291C127.96 50.51 128.735 52.3823 128.738 54.3351V108.219C128.735 110.172 127.96 112.044 126.581 113.425C125.202 114.806 123.333 115.583 121.383 115.585Z" fill="white"/>
<path d="M117.6 110.234H90.2786C88.3566 110.232 86.5139 109.466 85.1549 108.105C83.7958 106.744 83.0313 104.898 83.0291 102.973V59.5808C83.0313 57.6559 83.7958 55.8104 85.1549 54.4492C86.5139 53.088 88.3566 52.3224 90.2786 52.3202H117.6C119.522 52.3224 121.365 53.088 122.724 54.4492C124.083 55.8104 124.848 57.6559 124.85 59.5808V102.973C124.848 104.898 124.083 106.744 122.724 108.105C121.365 109.466 119.522 110.232 117.6 110.234Z" fill="#EB1700"/>
<path d="M128.627 94.441H79.4507V105.807H128.627V94.441Z" fill="#3F3D56"/>
<path d="M9.7309 67.158L1.40379 56.4353C0.866122 55.743 0.469871 54.9515 0.237666 54.1058C0.00546117 53.2602 -0.0581486 52.377 0.0504659 51.5067C0.15908 50.6365 0.437794 49.7961 0.87069 49.0338C1.30359 48.2714 1.88219 47.6019 2.57345 47.0635L36.3012 20.7903C38.2749 19.2501 40.6579 18.3264 43.1526 18.1345L45.9972 17.9139L70.4914 3.54488C70.2766 3.07579 70.2414 2.54398 70.3925 2.05059C70.5436 1.5572 70.8706 1.13665 71.3111 0.868938C71.7516 0.601224 72.2751 0.505018 72.7818 0.598618C73.2886 0.692218 73.7433 0.969096 74.0595 1.37659L81.0267 10.3482C81.3439 10.7564 81.4999 11.2675 81.4648 11.7836C81.4296 12.2997 81.2059 12.7848 80.8362 13.1462C80.4666 13.5076 79.977 13.7199 79.4609 13.7426C78.9449 13.7653 78.4386 13.5968 78.0387 13.2693L58.0021 33.3368C57.5752 36.6774 55.8411 39.7116 53.181 41.7719L19.0883 68.3295C18.3971 68.8679 17.6068 69.2648 16.7624 69.4974C15.9181 69.7299 15.0363 69.7936 14.1673 69.6849C13.2984 69.5761 12.4594 69.2969 11.6982 68.8634C10.937 68.4298 10.2685 67.8503 9.7309 67.158Z" fill="white"/>
<path d="M121.383 115.585H86.4958C84.546 115.583 82.6766 114.806 81.2978 113.425C79.919 112.044 79.1435 110.172 79.1413 108.219V54.3351C79.1435 52.3823 79.919 50.51 81.2978 49.1291C82.6766 47.7482 84.546 46.9714 86.4958 46.9692H121.383C123.333 46.9714 125.202 47.7482 126.581 49.1291C127.96 50.51 128.735 52.3823 128.738 54.3351V108.219C128.735 110.172 127.96 112.044 126.581 113.425C125.202 114.806 123.333 115.583 121.383 115.585ZM86.4958 47.3902C84.6574 47.3923 82.8948 48.1246 81.5949 49.4266C80.2949 50.7286 79.5636 52.4939 79.5616 54.3351V108.219C79.5636 110.06 80.2949 111.826 81.5949 113.128C82.8948 114.43 84.6574 115.162 86.4958 115.164H121.383C123.221 115.162 124.984 114.43 126.284 113.128C127.584 111.826 128.315 110.06 128.317 108.219V54.3351C128.315 52.4939 127.584 50.7286 126.284 49.4266C124.984 48.1246 123.221 47.3923 121.383 47.3902H86.4958Z" fill="#3F3D56"/>
<path d="M80.2439 2.56577C82.1328 1.7927 84.1804 1.48909 86.2119 1.68087C88.2433 1.87266 90.1982 2.55414 91.9096 3.66709C95.4295 5.9304 98.052 10.008 98.928 14.5797C99.3573 16.8201 99.5125 19.4261 101.077 20.8208C102.224 21.8424 103.784 21.869 105.164 22.3629C109.243 23.8235 111.348 29.4933 110.754 34.4172C110.16 39.341 107.515 43.5817 104.676 47.2941C105.579 45.2992 104.407 42.712 102.692 41.6651C100.978 40.6182 98.9347 40.7062 97.0049 40.8794C95.075 41.0526 93.0638 41.2722 91.2642 40.4418C88.1892 39.0229 86.6325 34.9113 86.4003 31.0673C86.1681 27.2232 86.9355 23.3924 86.9905 19.5394C87.0455 15.6863 86.1913 11.4655 83.5341 9.17095C82.3121 8.11572 80.7999 7.55282 79.6632 6.37527C78.5265 5.19771 77.9164 2.96244 78.9785 1.69387" fill="#EB1700"/>
<path d="M122.953 45.1893C122.843 45.1893 122.733 45.1932 122.625 45.1994C123.001 44.1404 123.055 42.9936 122.78 41.904C122.505 40.8143 121.914 39.8308 121.081 39.0776C120.248 38.3244 119.211 37.8353 118.101 37.6722C116.99 37.5092 115.857 37.6794 114.843 38.1614C113.933 35.5973 111.979 33.8235 109.713 33.8235C107.447 33.8235 105.492 35.5973 104.583 38.1614C103.822 37.7997 102.99 37.6121 102.147 37.6121C101.305 37.6121 100.473 37.7997 99.7119 38.1614C98.8024 35.5973 96.8475 33.8235 94.5818 33.8235C92.3161 33.8235 90.3612 35.5973 89.4517 38.1614C88.4377 37.6792 87.3037 37.509 86.1932 37.6723C85.0826 37.8356 84.0454 38.3251 83.2125 39.0788C82.3797 39.8325 81.7887 40.8166 81.5143 41.9066C81.2399 42.9967 81.2944 44.1438 81.6709 45.2029C81.562 45.1946 81.4525 45.1893 81.3421 45.1893C78.2084 45.1893 75.6679 48.5817 75.6679 52.7665C75.6679 56.9512 78.2084 60.3437 81.3421 60.3437C83.923 60.3437 86.1 58.0417 86.7883 54.892C87.6169 55.7209 88.6811 56.2729 89.8351 56.4723C90.9892 56.6717 92.1765 56.5088 93.2345 56.0058C94.1439 58.5698 96.0988 60.3437 98.3646 60.3437C100.946 60.3437 103.122 58.0417 103.811 54.892C104.639 55.7209 105.704 56.2729 106.858 56.4723C108.012 56.6717 109.199 56.5088 110.257 56.0058C111.166 58.5698 113.121 60.3437 115.387 60.3437C117.653 60.3437 119.608 58.5698 120.517 56.0058C121.286 56.3716 122.127 56.5596 122.978 56.5556C123.83 56.5517 124.669 56.3561 125.434 55.9832C126.2 55.6103 126.872 55.0696 127.4 54.4014C127.929 53.7331 128.3 52.9543 128.488 52.1227C128.675 51.2911 128.673 50.4279 128.482 49.5971C128.291 48.7663 127.916 47.9893 127.384 47.3234C126.853 46.6576 126.178 46.12 125.411 45.7506C124.644 45.3812 123.804 45.1893 122.953 45.1893V45.1893Z" fill="#F0F0F0"/>
<path d="M92.6904 61.396C93.2707 61.396 93.7412 60.9249 93.7412 60.3437C93.7412 59.7624 93.2707 59.2913 92.6904 59.2913C92.1101 59.2913 91.6396 59.7624 91.6396 60.3437C91.6396 60.9249 92.1101 61.396 92.6904 61.396Z" fill="white"/>
<path d="M99.2052 79.2867C99.7855 79.2867 100.256 78.8155 100.256 78.2343C100.256 77.6531 99.7855 77.1819 99.2052 77.1819C98.6248 77.1819 98.1544 77.6531 98.1544 78.2343C98.1544 78.8155 98.6248 79.2867 99.2052 79.2867Z" fill="white"/>
<path d="M105.93 67.079C106.51 67.079 106.981 66.6078 106.981 66.0266C106.981 65.4454 106.51 64.9742 105.93 64.9742C105.35 64.9742 104.879 65.4454 104.879 66.0266C104.879 66.6078 105.35 67.079 105.93 67.079Z" fill="white"/>
<path d="M98.3646 70.8676C98.9449 70.8676 99.4153 70.3964 99.4153 69.8152C99.4153 69.234 98.9449 68.7628 98.3646 68.7628C97.7842 68.7628 97.3138 69.234 97.3138 69.8152C97.3138 70.3964 97.7842 70.8676 98.3646 70.8676Z" fill="white"/>
<path d="M111.604 82.2333C112.185 82.2333 112.655 81.7621 112.655 81.1809C112.655 80.5997 112.185 80.1285 111.604 80.1285C111.024 80.1285 110.553 80.5997 110.553 81.1809C110.553 81.7621 111.024 82.2333 111.604 82.2333Z" fill="white"/>
<path d="M115.387 61.396C115.967 61.396 116.438 60.9249 116.438 60.3437C116.438 59.7624 115.967 59.2913 115.387 59.2913C114.807 59.2913 114.336 59.7624 114.336 60.3437C114.336 60.9249 114.807 61.396 115.387 61.396Z" fill="white"/>
<path d="M128.527 98.4401V98.0191C133.726 98.0191 138.712 95.9508 142.388 92.2692C146.064 88.5875 148.129 83.5942 148.129 78.3875C148.129 73.1809 146.064 68.1875 142.388 64.5059C138.712 60.8242 133.726 58.7559 128.527 58.7559V58.335C133.838 58.335 138.93 60.4476 142.685 64.2082C146.44 67.9688 148.549 73.0693 148.549 78.3875C148.549 83.7058 146.44 88.8063 142.685 92.5668C138.93 96.3274 133.838 98.4401 128.527 98.4401Z" fill="#3F3D56"/>
<path d="M128.627 94.6515H128.417V94.1208H128.837V94.2291C132.802 94.1736 136.584 92.55 139.359 89.7123C142.133 86.8747 143.675 83.0534 143.647 79.082C143.619 75.1105 142.024 71.3112 139.211 68.5127C136.397 65.7143 132.592 64.1438 128.627 64.1439V63.7229C132.722 63.7229 136.649 65.3522 139.545 68.2523C142.44 71.1524 144.067 75.0858 144.067 79.1872C144.067 83.2886 142.44 87.222 139.545 90.1221C136.649 93.0222 132.722 94.6515 128.627 94.6515V94.6515Z" fill="#3F3D56"/>
<path d="M11.49 64.5811L4.33065 55.3621C3.87447 54.7748 3.53827 54.1032 3.34126 53.3857C3.14425 52.6682 3.09028 51.9189 3.18243 51.1805C3.27459 50.4422 3.51107 49.7292 3.87836 49.0824C4.24565 48.4356 4.73656 47.8675 5.32306 47.4107L34.3211 24.8219C36.0063 23.5068 38.041 22.7181 40.1711 22.5542L42.6342 22.3632L65.3382 9.04443L71.4418 16.9041L52.8607 35.5139C52.683 36.931 52.2276 38.299 51.5206 39.5393C50.8136 40.7797 49.869 41.868 48.741 42.7417L19.4292 65.575C18.8427 66.0319 18.1722 66.3686 17.4558 66.566C16.7395 66.7633 15.9913 66.8173 15.254 66.725C14.5168 66.6328 13.805 66.3959 13.1591 66.0281C12.5133 65.6602 11.9461 65.1685 11.49 64.5811Z" fill="#EB1700"/>
<path d="M78.9946 10.603C79.6914 10.7988 80.586 10.6023 81.3359 10.0182C82.4353 9.16175 82.8067 7.79807 82.1653 6.97224C82.0486 6.8226 81.9038 6.69717 81.7392 6.60297C81.8212 6.34975 81.8425 6.08071 81.8013 5.8177C81.76 5.55469 81.6574 5.30514 81.5018 5.08931C81.4187 4.98291 81.3211 4.88868 81.2119 4.80939C81.935 3.80695 82.2062 2.91089 81.8335 2.43105C81.7254 2.31298 81.592 2.22095 81.4434 2.16186C81.2947 2.10276 81.1346 2.07814 80.9751 2.08983C81.0276 1.68037 80.919 1.26651 80.6723 0.935779C80.1308 0.238444 79.0407 0.150067 78.0525 0.654386C78.0406 0.637705 78.0308 0.619813 78.0182 0.603507C77.3768 -0.222329 75.9657 -0.197514 74.8663 0.658891C74.3161 1.07001 73.9275 1.66162 73.7683 2.33044C73.0819 2.3203 72.4137 2.55192 71.8804 2.98487C70.781 3.84128 70.4097 5.20495 71.051 6.03079C71.0793 6.0673 71.1109 6.1 71.1422 6.13319L71.1291 6.14673C71.1043 6.10746 71.0799 6.06803 71.051 6.03079C70.4097 5.20495 68.9986 5.22977 67.8992 6.08618C67.3489 6.4973 66.9603 7.0889 66.8011 7.75773C66.1147 7.74759 65.4465 7.97921 64.9132 8.41216C63.8138 9.26856 63.4425 10.6322 64.0838 11.4581C64.7251 12.2839 66.1362 12.2591 67.2356 11.4027C66.9804 11.6009 66.7803 11.8613 66.6542 12.1591C66.5281 12.4568 66.4804 12.782 66.5156 13.1035C66.5508 13.425 66.6676 13.7321 66.8551 13.9955C67.0425 14.2588 67.2943 14.4696 67.5863 14.6078C67.354 15.1677 67.3311 15.6396 67.5674 15.9439C67.9401 16.4237 68.8739 16.3811 70.022 15.9259C70.0719 16.0514 70.1391 16.1693 70.2216 16.2762C70.8629 17.102 72.274 17.0772 73.3734 16.2208C73.9236 15.8096 74.3123 15.2181 74.4715 14.5493C75.1579 14.5594 75.826 14.3277 76.3593 13.8948C76.6125 13.6982 76.8354 13.4653 77.0207 13.2036C77.3195 13.0882 77.5998 12.9292 77.8523 12.7318C78.6022 12.1476 79.0126 11.3276 78.9946 10.603Z" fill="#F0F0F0"/>
<path d="M9.7309 67.158L1.40379 56.4353C0.866122 55.743 0.469871 54.9515 0.237666 54.1058C0.00546117 53.2602 -0.0581486 52.377 0.0504659 51.5067C0.15908 50.6365 0.437794 49.7961 0.87069 49.0338C1.30359 48.2714 1.88219 47.6019 2.57345 47.0635L36.3012 20.7903C38.2749 19.2501 40.6579 18.3264 43.1526 18.1345L45.9972 17.9139L70.4914 3.54488C70.2766 3.07579 70.2414 2.54398 70.3925 2.05059C70.5436 1.5572 70.8706 1.13665 71.3111 0.868938C71.7516 0.601224 72.2751 0.505018 72.7818 0.598618C73.2886 0.692218 73.7433 0.969096 74.0595 1.37659L81.0267 10.3482C81.3439 10.7564 81.4999 11.2675 81.4648 11.7836C81.4296 12.2997 81.2059 12.7848 80.8362 13.1462C80.4666 13.5076 79.977 13.7199 79.4609 13.7426C78.9449 13.7653 78.4386 13.5968 78.0387 13.2693L58.0021 33.3368C57.5752 36.6774 55.8411 39.7116 53.181 41.7719L19.0883 68.3295C18.3971 68.8679 17.6068 69.2648 16.7624 69.4974C15.9181 69.7299 15.0363 69.7936 14.1673 69.6849C13.2984 69.5761 12.4594 69.2969 11.6982 68.8634C10.937 68.4298 10.2685 67.8503 9.7309 67.158ZM73.7277 1.63503C73.4659 1.29752 73.0857 1.07242 72.6643 1.0054C72.2428 0.938389 71.8117 1.03448 71.4584 1.27418C71.1051 1.51388 70.8561 1.87923 70.7619 2.29608C70.6678 2.71293 70.7355 3.15005 70.9513 3.51873L71.0579 3.70044L46.1262 18.326L43.1851 18.5541C40.7725 18.7398 38.468 19.6331 36.5592 21.1225L2.83149 47.3957C2.18379 47.9002 1.64166 48.5275 1.23605 49.2418C0.830431 49.9562 0.569284 50.7435 0.467516 51.5589C0.365747 52.3744 0.425352 53.2019 0.642925 53.9942C0.860498 54.7866 1.23178 55.5282 1.73556 56.1768L10.0627 66.8996C10.5664 67.5483 11.1927 68.0912 11.9059 68.4975C12.6192 68.9037 13.4053 69.1653 14.2195 69.2672C15.0336 69.3691 15.8599 69.3094 16.651 69.0915C17.4421 68.8736 18.1826 68.5017 18.8303 67.9972L52.923 41.4397C54.2061 40.4458 55.2796 39.207 56.0814 37.7948C56.8833 36.3826 57.3975 34.8252 57.5943 33.2127L57.6032 33.141L78.0316 12.6811L78.1802 12.8302C78.4825 13.1333 78.8889 13.3094 79.3164 13.3228C79.7439 13.3362 80.1605 13.1858 80.4811 12.9022C80.8018 12.6187 81.0024 12.2234 81.0421 11.7969C81.0818 11.3703 80.9577 10.9447 80.6949 10.6066L73.7277 1.63503Z" fill="#3F3D56"/>
<path d="M28.8742 26.8424L16.9305 36.1464L33.1873 57.0801L45.131 47.7762L28.8742 26.8424Z" fill="#3F3D56"/>
<path d="M17.2254 36.1833L33.2242 56.7847L44.8361 47.7393L28.8373 27.1378L17.2254 36.1833Z" fill="#3F3D56"/>
<path d="M63.9179 17.4394C64.4982 17.4394 64.9687 16.9682 64.9687 16.387C64.9687 15.8058 64.4982 15.3346 63.9179 15.3346C63.3376 15.3346 62.8671 15.8058 62.8671 16.387C62.8671 16.9682 63.3376 17.4394 63.9179 17.4394Z" fill="white"/>
<path d="M55.6236 19.1007C56.204 19.1007 56.6744 18.6296 56.6744 18.0484C56.6744 17.4671 56.204 16.996 55.6236 16.996C55.0433 16.996 54.5729 17.4671 54.5729 18.0484C54.5729 18.6296 55.0433 19.1007 55.6236 19.1007Z" fill="white"/>
<path d="M56.1213 25.9125C56.7017 25.9125 57.1721 25.4413 57.1721 24.8601C57.1721 24.2789 56.7017 23.8077 56.1213 23.8077C55.541 23.8077 55.0706 24.2789 55.0706 24.8601C55.0706 25.4413 55.541 25.9125 56.1213 25.9125Z" fill="white"/>
<path d="M47.827 27.5739C48.4074 27.5739 48.8778 27.1027 48.8778 26.5215C48.8778 25.9403 48.4074 25.4691 47.827 25.4691C47.2467 25.4691 46.7763 25.9403 46.7763 26.5215C46.7763 27.1027 47.2467 27.5739 47.827 27.5739Z" fill="white"/>
<path d="M91.0092 15.091C91.5895 15.091 92.0599 14.6198 92.0599 14.0386C92.0599 13.4574 91.5895 12.9862 91.0092 12.9862C90.4289 12.9862 89.9584 13.4574 89.9584 14.0386C89.9584 14.6198 90.4289 15.091 91.0092 15.091Z" fill="white"/>
<path d="M94.792 20.7738C95.3723 20.7738 95.8427 20.3027 95.8427 19.7215C95.8427 19.1402 95.3723 18.6691 94.792 18.6691C94.2116 18.6691 93.7412 19.1402 93.7412 19.7215C93.7412 20.3027 94.2116 20.7738 94.792 20.7738Z" fill="white"/>
<path d="M94.792 30.2454C95.3723 30.2454 95.8427 29.7742 95.8427 29.193C95.8427 28.6118 95.3723 28.1406 94.792 28.1406C94.2116 28.1406 93.7412 28.6118 93.7412 29.193C93.7412 29.7742 94.2116 30.2454 94.792 30.2454Z" fill="white"/>
<path d="M79.4704 36.5197C78.3079 36.5561 74.5849 36.8003 72.6507 38.4274C70.34 40.3712 70.3399 42.2172 71.4596 43.5524C72.5793 44.8876 74.3947 45.2064 76.7055 43.2626C78.6642 41.6149 79.5453 37.9121 79.7684 36.8218L79.4704 36.5197Z" fill="#F2F2F2"/>
<path d="M109.349 13.1143C110.088 14.0133 112.558 16.8143 115.026 17.3522C117.975 17.9948 119.433 16.8661 119.803 15.1623C120.173 13.4585 119.315 11.8249 116.366 11.1823C113.867 10.6375 110.403 12.2035 109.405 12.6934L109.349 13.1143Z" fill="#F2F2F2"/>
<path d="M128.254 40.6874C128.39 41.8442 128.955 45.538 130.74 47.3274C132.873 49.4652 134.709 49.3059 135.941 48.0734C137.172 46.8408 137.333 45.0019 135.2 42.864C133.391 41.0519 129.632 40.4925 128.528 40.364L128.254 40.6874Z" fill="#F2F2F2"/>
</g>
<defs>
<clipPath id="clip0_208_321">
<rect width="171" height="116" fill="white"/>
</clipPath>
</defs>
</svg>
