<svg width="196" height="159" viewBox="0 0 196 159" fill="none" xmlns="http://www.w3.org/2000/svg">
<path d="M11.6746 152H7.74857V136.712H2.70457V133.436H16.7186V136.712H11.6746V152ZM23.0112 137.518C24.9178 137.518 26.3738 137.934 27.3792 138.766C28.4018 139.581 28.9132 140.837 28.9132 142.536V152H26.2092L25.4552 150.076H25.3512C24.9525 150.579 24.5365 150.995 24.1032 151.324C23.6872 151.653 23.2018 151.887 22.6472 152.026C22.1098 152.182 21.4425 152.26 20.6452 152.26C19.8132 152.26 19.0592 152.104 18.3832 151.792C17.7245 151.463 17.2045 150.969 16.8232 150.31C16.4418 149.634 16.2512 148.785 16.2512 147.762C16.2512 146.254 16.7798 145.145 17.8372 144.434C18.8945 143.706 20.4805 143.307 22.5952 143.238L25.0652 143.16V142.536C25.0652 141.791 24.8658 141.245 24.4672 140.898C24.0858 140.551 23.5485 140.378 22.8552 140.378C22.1618 140.378 21.4858 140.482 20.8272 140.69C20.1685 140.881 19.5098 141.123 18.8512 141.418L17.5772 138.792C18.3398 138.393 19.1805 138.081 20.0992 137.856C21.0352 137.631 22.0058 137.518 23.0112 137.518ZM23.5572 145.474C22.3092 145.509 21.4425 145.734 20.9572 146.15C20.4718 146.566 20.2292 147.112 20.2292 147.788C20.2292 148.377 20.4025 148.802 20.7492 149.062C21.0958 149.305 21.5465 149.426 22.1012 149.426C22.9332 149.426 23.6352 149.183 24.2072 148.698C24.7792 148.195 25.0652 147.493 25.0652 146.592V145.422L23.5572 145.474ZM36.7526 141.08C36.7526 141.617 36.7266 142.155 36.6746 142.692C36.6399 143.212 36.5966 143.741 36.5446 144.278H36.5966C36.7699 144.035 36.9433 143.793 37.1166 143.55C37.3073 143.307 37.4979 143.065 37.6886 142.822C37.8793 142.579 38.0786 142.345 38.2866 142.12L42.2646 137.804H46.6326L40.9906 143.966L46.9706 152H42.4986L38.4166 146.254L36.7526 147.58V152H32.8786V132.24H36.7526V141.08ZM54.8516 137.544C56.169 137.544 57.2956 137.795 58.2316 138.298C59.185 138.801 59.9216 139.529 60.4416 140.482C60.9616 141.435 61.2216 142.605 61.2216 143.992V145.864H52.0696C52.1043 146.956 52.425 147.814 53.0316 148.438C53.6556 149.062 54.5136 149.374 55.6056 149.374C56.5243 149.374 57.3563 149.287 58.1016 149.114C58.847 148.923 59.6183 148.637 60.4156 148.256V151.246C59.7223 151.593 58.9856 151.844 58.2056 152C57.443 152.173 56.5156 152.26 55.4236 152.26C54.0023 152.26 52.7456 152 51.6536 151.48C50.5616 150.943 49.7036 150.137 49.0796 149.062C48.4556 147.987 48.1436 146.635 48.1436 145.006C48.1436 143.342 48.421 141.964 48.9756 140.872C49.5476 139.763 50.3363 138.931 51.3416 138.376C52.347 137.821 53.517 137.544 54.8516 137.544ZM54.8776 140.3C54.1323 140.3 53.5083 140.543 53.0056 141.028C52.5203 141.513 52.2343 142.267 52.1476 143.29H57.5816C57.5816 142.718 57.4776 142.207 57.2696 141.756C57.079 141.305 56.7843 140.95 56.3856 140.69C55.987 140.43 55.4843 140.3 54.8776 140.3ZM88.2769 142.692C88.2769 144.131 88.0949 145.439 87.7309 146.618C87.3842 147.779 86.8469 148.785 86.1189 149.634C85.4082 150.483 84.4895 151.133 83.3629 151.584C82.2535 152.035 80.9449 152.26 79.4369 152.26C77.9289 152.26 76.6115 152.035 75.4849 151.584C74.3755 151.116 73.4569 150.466 72.7289 149.634C72.0182 148.785 71.4809 147.771 71.1169 146.592C70.7702 145.413 70.5969 144.105 70.5969 142.666C70.5969 140.742 70.9089 139.069 71.5329 137.648C72.1742 136.227 73.1449 135.126 74.4449 134.346C75.7622 133.549 77.4349 133.15 79.4629 133.15C81.4735 133.15 83.1289 133.549 84.4289 134.346C85.7289 135.126 86.6909 136.235 87.3149 137.674C87.9562 139.095 88.2769 140.768 88.2769 142.692ZM74.7309 142.692C74.7309 143.992 74.8955 145.11 75.2249 146.046C75.5542 146.982 76.0655 147.701 76.7589 148.204C77.4522 148.707 78.3449 148.958 79.4369 148.958C80.5635 148.958 81.4649 148.707 82.1409 148.204C82.8342 147.701 83.3369 146.982 83.6489 146.046C83.9782 145.11 84.1429 143.992 84.1429 142.692C84.1429 140.733 83.7789 139.199 83.0509 138.09C82.3229 136.981 81.1269 136.426 79.4629 136.426C78.3535 136.426 77.4522 136.677 76.7589 137.18C76.0655 137.683 75.5542 138.402 75.2249 139.338C74.8955 140.274 74.7309 141.392 74.7309 142.692ZM104.836 137.804V152H101.872L101.352 150.18H101.144C100.85 150.665 100.468 151.064 100 151.376C99.5496 151.671 99.0469 151.887 98.4922 152.026C97.9376 152.182 97.3656 152.26 96.7762 152.26C95.7709 152.26 94.8869 152.078 94.1242 151.714C93.3616 151.35 92.7722 150.787 92.3562 150.024C91.9402 149.261 91.7322 148.273 91.7322 147.06V137.804H95.6062V146.098C95.6062 147.103 95.7882 147.866 96.1522 148.386C96.5162 148.906 97.0969 149.166 97.8942 149.166C98.6916 149.166 99.3069 148.984 99.7402 148.62C100.191 148.256 100.503 147.727 100.676 147.034C100.867 146.341 100.962 145.491 100.962 144.486V137.804H104.836ZM114.878 149.166C115.311 149.166 115.727 149.123 116.126 149.036C116.525 148.949 116.923 148.845 117.322 148.724V151.61C116.906 151.783 116.386 151.931 115.762 152.052C115.155 152.191 114.488 152.26 113.76 152.26C112.911 152.26 112.148 152.121 111.472 151.844C110.813 151.567 110.285 151.09 109.886 150.414C109.505 149.721 109.314 148.767 109.314 147.554V140.716H107.468V139.078L109.6 137.778L110.718 134.788H113.188V137.804H117.166V140.716H113.188V147.554C113.188 148.091 113.344 148.499 113.656 148.776C113.968 149.036 114.375 149.166 114.878 149.166ZM131.111 152H127.237V133.436H137.871V136.66H131.111V141.444H137.403V144.668H131.111V152ZM154.091 144.876C154.091 146.055 153.926 147.103 153.597 148.022C153.285 148.941 152.826 149.721 152.219 150.362C151.63 150.986 150.91 151.463 150.061 151.792C149.212 152.104 148.25 152.26 147.175 152.26C146.187 152.26 145.268 152.104 144.419 151.792C143.587 151.463 142.868 150.986 142.261 150.362C141.654 149.721 141.178 148.941 140.831 148.022C140.502 147.103 140.337 146.055 140.337 144.876C140.337 143.299 140.614 141.973 141.169 140.898C141.724 139.806 142.521 138.974 143.561 138.402C144.601 137.83 145.832 137.544 147.253 137.544C148.588 137.544 149.766 137.83 150.789 138.402C151.812 138.974 152.618 139.806 153.207 140.898C153.796 141.973 154.091 143.299 154.091 144.876ZM144.289 144.876C144.289 145.812 144.384 146.601 144.575 147.242C144.783 147.866 145.104 148.343 145.537 148.672C145.97 148.984 146.534 149.14 147.227 149.14C147.92 149.14 148.475 148.984 148.891 148.672C149.324 148.343 149.636 147.866 149.827 147.242C150.035 146.601 150.139 145.812 150.139 144.876C150.139 143.94 150.035 143.16 149.827 142.536C149.636 141.912 149.324 141.444 148.891 141.132C148.458 140.82 147.894 140.664 147.201 140.664C146.178 140.664 145.433 141.019 144.965 141.73C144.514 142.423 144.289 143.472 144.289 144.876ZM170.189 144.876C170.189 146.055 170.024 147.103 169.695 148.022C169.383 148.941 168.923 149.721 168.317 150.362C167.727 150.986 167.008 151.463 166.159 151.792C165.309 152.104 164.347 152.26 163.273 152.26C162.285 152.26 161.366 152.104 160.517 151.792C159.685 151.463 158.965 150.986 158.359 150.362C157.752 149.721 157.275 148.941 156.929 148.022C156.599 147.103 156.435 146.055 156.435 144.876C156.435 143.299 156.712 141.973 157.267 140.898C157.821 139.806 158.619 138.974 159.659 138.402C160.699 137.83 161.929 137.544 163.351 137.544C164.685 137.544 165.864 137.83 166.887 138.402C167.909 138.974 168.715 139.806 169.305 140.898C169.894 141.973 170.189 143.299 170.189 144.876ZM160.387 144.876C160.387 145.812 160.482 146.601 160.673 147.242C160.881 147.866 161.201 148.343 161.635 148.672C162.068 148.984 162.631 149.14 163.325 149.14C164.018 149.14 164.573 148.984 164.989 148.672C165.422 148.343 165.734 147.866 165.925 147.242C166.133 146.601 166.237 145.812 166.237 144.876C166.237 143.94 166.133 143.16 165.925 142.536C165.734 141.912 165.422 141.444 164.989 141.132C164.555 140.82 163.992 140.664 163.299 140.664C162.276 140.664 161.531 141.019 161.063 141.73C160.612 142.423 160.387 143.472 160.387 144.876ZM177.888 152.26C176.311 152.26 175.02 151.645 174.014 150.414C173.026 149.166 172.532 147.337 172.532 144.928C172.532 142.501 173.035 140.664 174.04 139.416C175.046 138.168 176.363 137.544 177.992 137.544C178.668 137.544 179.266 137.639 179.786 137.83C180.306 138.003 180.748 138.246 181.112 138.558C181.494 138.87 181.814 139.225 182.074 139.624H182.204C182.152 139.347 182.092 138.948 182.022 138.428C181.953 137.891 181.918 137.345 181.918 136.79V132.24H185.792V152H182.828L182.074 150.154H181.918C181.676 150.535 181.364 150.891 180.982 151.22C180.618 151.532 180.185 151.783 179.682 151.974C179.18 152.165 178.582 152.26 177.888 152.26ZM179.24 149.166C180.315 149.166 181.069 148.854 181.502 148.23C181.936 147.589 182.161 146.635 182.178 145.37V144.954C182.178 143.567 181.962 142.51 181.528 141.782C181.112 141.054 180.332 140.69 179.188 140.69C178.339 140.69 177.672 141.063 177.186 141.808C176.701 142.536 176.458 143.593 176.458 144.98C176.458 146.367 176.701 147.415 177.186 148.126C177.672 148.819 178.356 149.166 179.24 149.166Z" fill="#717171"/>
<path d="M26.3567 55.7701H20.0841C19.8635 55.7701 19.652 55.8576 19.496 56.0134C19.3401 56.1691 19.2525 56.3803 19.2525 56.6005V59.3497C19.2525 59.57 19.3401 59.7812 19.496 59.9369C19.652 60.0927 19.8635 60.1801 20.0841 60.1801H21.1236V64.2994H25.3173V60.1801H26.3567C26.5773 60.1801 26.7888 60.0927 26.9448 59.9369C27.1007 59.7812 27.1883 59.57 27.1883 59.3497V56.6005C27.1883 56.3803 27.1007 56.1691 26.9448 56.0134C26.7888 55.8576 26.5773 55.7701 26.3567 55.7701Z" fill="#EB1700"/>
<path d="M32.6394 80.9308C28.7979 75.3179 26.834 68.6348 27.0292 61.8391C27.0326 61.6823 26.9817 61.5292 26.8849 61.4056C26.7881 61.2821 26.6515 61.1958 26.4983 61.1614V59.9735H19.8735V61.1449H19.7823C19.6888 61.145 19.5964 61.1644 19.5108 61.2018C19.4252 61.2392 19.3482 61.2937 19.2847 61.3622C19.2212 61.4306 19.1725 61.5113 19.1416 61.5994C19.1107 61.6874 19.0983 61.7809 19.1053 61.874C19.6272 69.1385 17.8648 75.6532 13.8182 81.418C13.5854 81.7493 13.4664 82.1471 13.4792 82.5517L14.2036 104.926C14.221 105.425 14.4307 105.898 14.7891 106.246C15.1474 106.595 15.6266 106.791 16.1267 106.795H31.1108C31.6166 106.791 32.1008 106.59 32.4602 106.235C32.8197 105.879 33.0259 105.398 33.0351 104.893L33.3143 83.1693C33.3225 82.372 33.0871 81.5911 32.6394 80.9308Z" fill="#3F3D56"/>
<path opacity="0.2" d="M25.0491 56.666C25.0491 57.1412 24.8601 57.5969 24.5236 57.9328C24.1871 58.2688 23.7308 58.4576 23.2549 58.4576C22.7791 58.4576 22.3227 58.2688 21.9862 57.9328C21.6498 57.5969 21.4607 57.1412 21.4607 56.666" fill="black"/>
<path d="M30.2674 88.3628H28.4529C28.2797 87.2404 27.7099 86.2169 26.8466 85.4776C25.9833 84.7382 24.8835 84.3318 23.7462 84.3318C22.6089 84.3318 21.5091 84.7382 20.6458 85.4776C19.7825 86.2169 19.2127 87.2404 19.0395 88.3628H17.2249C17.0318 88.3628 16.841 88.4045 16.6656 88.485C16.4902 88.5655 16.3343 88.683 16.2086 88.8293C16.0829 88.9756 15.9903 89.1473 15.9373 89.3327C15.8843 89.518 15.872 89.7127 15.9014 89.9032L17.8723 102.695H29.1896L31.5835 89.9463C31.6198 89.7532 31.613 89.5545 31.5636 89.3643C31.5142 89.1741 31.4235 88.9972 31.2978 88.846C31.1722 88.6948 31.0147 88.5731 30.8366 88.4896C30.6585 88.4061 30.4642 88.3628 30.2674 88.3628Z" fill="#EB1700"/>
<path d="M182.746 67.8014L182.311 85.1717L181.772 106.712H163.425L162.793 81.475L162.45 67.8014H182.746Z" fill="#E6E6E6"/>
<path d="M173.816 58.5602H171.218V92.931H173.816V58.5602Z" fill="#EB1700"/>
<path d="M181.447 80.8898L180.956 105.579H164.233L163.657 76.653C165.163 76.2304 166.741 76.1222 168.292 76.3351C169.842 76.5481 171.332 77.0775 172.668 77.8906C175.462 79.5407 178.601 80.4289 181.447 80.8898Z" fill="#3F3D56"/>
<path d="M168.373 83.6692H165.989V86.0495H168.373V83.6692Z" fill="#E6E6E6"/>
<path d="M169.996 78.8053H167.612V81.1856H169.996V78.8053Z" fill="#E6E6E6"/>
<path d="M175.115 82.1724L173.2 80.7545L171.78 82.6664L173.695 84.0843L175.115 82.1724Z" fill="#E6E6E6"/>
<path d="M179.422 86.3898L177.507 84.9719L176.087 86.8838L178.002 88.3017L179.422 86.3898Z" fill="#E6E6E6"/>
<path d="M172.115 88.8219L170.201 87.4039L168.781 89.3158L170.695 90.7337L172.115 88.8219Z" fill="#E6E6E6"/>
<path d="M177.713 77.8533C177.982 77.8533 178.2 77.6355 178.2 77.3669C178.2 77.0983 177.982 76.8805 177.713 76.8805C177.444 76.8805 177.226 77.0983 177.226 77.3669C177.226 77.6355 177.444 77.8533 177.713 77.8533Z" fill="#3F3D56"/>
<path d="M167.809 74.6107C168.078 74.6107 168.296 74.3929 168.296 74.1243C168.296 73.8557 168.078 73.6379 167.809 73.6379C167.539 73.6379 167.321 73.8557 167.321 74.1243C167.321 74.3929 167.539 74.6107 167.809 74.6107Z" fill="#3F3D56"/>
<path d="M176.089 71.206C176.358 71.206 176.576 70.9883 176.576 70.7197C176.576 70.451 176.358 70.2333 176.089 70.2333C175.82 70.2333 175.602 70.451 175.602 70.7197C175.602 70.9883 175.82 71.206 176.089 71.206Z" fill="#3F3D56"/>
<path d="M98.1121 106.563C127.582 106.563 151.472 82.7084 151.472 53.2817C151.472 23.855 127.582 0 98.1121 0C68.6422 0 44.752 23.855 44.752 53.2817C44.752 82.7084 68.6422 106.563 98.1121 106.563Z" fill="#EB1700"/>
<path opacity="0.2" d="M98.1121 92.1722C89.1014 92.1721 80.3695 89.0524 73.4042 83.3444C66.4389 77.6364 61.6711 69.6935 59.9132 60.8689C58.1554 52.0443 59.5162 42.8841 63.7639 34.9491C68.0115 27.0141 74.8832 20.7952 83.208 17.352C91.5328 13.9089 100.796 13.4545 109.418 16.0664C118.041 18.6782 125.49 24.1947 130.496 31.6758C135.502 39.1569 137.756 48.1398 136.872 57.0939C135.989 66.048 132.024 74.4194 125.652 80.7815C122.044 84.4041 117.752 87.2762 113.025 89.2314C108.298 91.1866 103.229 92.1862 98.1121 92.1722ZM98.1121 16.7898C77.9608 16.7898 61.5665 33.16 61.5665 53.2817C61.5665 73.4034 77.9608 89.7737 98.1121 89.7737C118.263 89.7737 134.658 73.4034 134.658 53.2817C134.658 33.16 118.263 16.7898 98.1121 16.7898Z" fill="black"/>
<path d="M98.1122 90.9729C118.959 90.9729 135.859 74.098 135.859 53.2817C135.859 32.4654 118.959 15.5905 98.1122 15.5905C77.2652 15.5905 60.3654 32.4654 60.3654 53.2817C60.3654 74.098 77.2652 90.9729 98.1122 90.9729Z" fill="#3F3D56"/>
<path d="M70.0407 38.2105C69.7545 37.6507 69.5815 37.04 69.5318 36.4133C69.482 35.7867 69.5565 35.1564 69.7508 34.5585C69.9452 33.9606 70.2556 33.4068 70.6644 32.9288C71.0733 32.4508 71.5724 32.058 72.1334 31.7727C72.6944 31.4875 73.3062 31.3154 73.9338 31.2664C74.5614 31.2174 75.1925 31.2924 75.7911 31.4871C76.3896 31.6818 76.9439 31.9923 77.4222 32.4011C77.9005 32.8098 78.2934 33.3086 78.5785 33.8691L89.2429 54.7799C89.5292 55.3398 89.7021 55.9505 89.7518 56.5771C89.8016 57.2038 89.7272 57.834 89.5328 58.4319C89.3385 59.0298 89.028 59.5836 88.6192 60.0616C88.2104 60.5396 87.7112 60.9325 87.1502 61.2177C86.5892 61.503 85.9775 61.675 85.3499 61.724C84.7222 61.7731 84.0911 61.6981 83.4925 61.5034C82.894 61.3087 82.3397 60.9981 81.8614 60.5894C81.3831 60.1806 80.9902 59.6818 80.7051 59.1213L70.0407 38.2105Z" fill="#FF6584"/>
<path opacity="0.2" d="M71.2302 40.5429L70.738 39.5777C73.1945 37.6719 76.079 36.2702 79.2758 35.2363L79.768 36.2014C76.3081 36.9209 73.3645 38.2523 71.2302 40.5429Z" fill="black"/>
<path opacity="0.2" d="M73.5272 45.0468L73.035 44.0816C75.4914 42.1758 78.3759 40.7742 81.5727 39.7402L82.0649 40.7053C78.605 41.4248 75.6615 42.7562 73.5272 45.0468Z" fill="black"/>
<path opacity="0.2" d="M75.8241 49.5507L75.3319 48.5856C77.7883 46.6797 80.6729 45.2781 83.8696 44.2441L84.3619 45.2093C80.902 45.9287 77.9584 47.2601 75.8241 49.5507Z" fill="black"/>
<path opacity="0.2" d="M78.1211 54.0546L77.6289 53.0895C80.0853 51.1836 82.9698 49.782 86.1666 48.748L86.6588 49.7132C83.1989 50.4326 80.2554 51.764 78.1211 54.0546Z" fill="black"/>
<path opacity="0.2" d="M80.418 58.5584L79.9258 57.5932C82.3823 55.6874 85.2668 54.2858 88.4636 53.2518L88.9558 54.2169C85.4959 54.9364 82.5523 56.2678 80.418 58.5584Z" fill="black"/>
<path d="M62.04 46.0388C61.7538 45.479 61.5809 44.8683 61.5312 44.2417C61.4815 43.6151 61.556 42.9849 61.7504 42.387C61.9447 41.7892 62.2552 41.2354 62.664 40.7575C63.0728 40.2795 63.572 39.8867 64.1329 39.6015C64.6938 39.3162 65.3056 39.1442 65.9331 39.0951C66.5607 39.0461 67.1918 39.1211 67.7903 39.3157C68.3889 39.5104 68.9431 39.8209 69.4214 40.2296C69.8997 40.6382 70.2926 41.137 70.5777 41.6974L81.2421 62.6082C81.8171 63.7386 81.9192 65.0506 81.5259 66.256C81.1327 67.4615 80.2763 68.4617 79.1449 69.037C78.0135 69.6123 76.6996 69.7156 75.492 69.3242C74.2844 68.9328 73.2817 68.0788 72.7044 66.9496L62.04 46.0388Z" fill="#FF6584"/>
<path opacity="0.2" d="M63.2295 48.3712L62.7372 47.4061C65.1937 45.5003 68.0782 44.0986 71.275 43.0647L71.7672 44.0298C68.3073 44.7492 65.3637 46.0806 63.2295 48.3712Z" fill="black"/>
<path opacity="0.2" d="M65.5264 52.875L65.0342 51.9099C67.4906 50.004 70.3752 48.6024 73.572 47.5685L74.0642 48.5336C70.6043 49.253 67.6607 50.5844 65.5264 52.875Z" fill="black"/>
<path opacity="0.2" d="M67.8234 57.3789L67.3311 56.4138C69.7876 54.508 72.6721 53.1063 75.8689 52.0724L76.3611 53.0375C72.9012 53.7569 69.9576 55.0883 67.8234 57.3789Z" fill="black"/>
<path opacity="0.2" d="M70.1203 61.8828L69.6281 60.9177C72.0845 59.0119 74.9691 57.6102 78.1658 56.5763L78.6581 57.5414C75.1982 58.2608 72.2546 59.5922 70.1203 61.8828Z" fill="black"/>
<path opacity="0.2" d="M72.4173 66.3866L71.925 65.4215C74.3815 63.5156 77.266 62.114 80.4628 61.0801L80.955 62.0452C77.4951 62.7646 74.5515 64.096 72.4173 66.3866Z" fill="black"/>
<path d="M123.334 54.481L123.367 54.481C124.516 54.4907 125.641 54.1544 126.595 53.516C127.55 52.8777 128.289 51.967 128.718 50.9026C129.598 48.6796 130.042 46.308 130.025 43.9174C129.965 33.7989 121.721 25.4978 111.588 25.3578C107.273 25.2975 103.07 26.729 99.6906 29.4098C96.3116 32.0906 93.9649 35.8556 93.0484 40.0667C92.1318 44.2778 92.7018 48.6757 94.6617 52.5151C96.6216 56.3545 99.8508 59.399 103.802 61.1326C104.846 61.5942 106.006 61.7299 107.128 61.5221C108.251 61.3142 109.285 60.7723 110.094 59.9676C111.829 58.2259 113.892 56.8444 116.165 55.9027C118.437 54.9611 120.873 54.4779 123.334 54.481Z" fill="#E6E6E6"/>
<path d="M113.726 48.8273C117.137 48.8273 119.902 46.0659 119.902 42.6596C119.902 39.2533 117.137 36.4919 113.726 36.4919C110.314 36.4919 107.549 39.2533 107.549 42.6596C107.549 46.0659 110.314 48.8273 113.726 48.8273Z" fill="#F9A825"/>
<path d="M100.301 41.9661C100.703 41.9661 101.029 41.6408 101.029 41.2395C101.029 40.8382 100.703 40.5129 100.301 40.5129C99.8994 40.5129 99.5737 40.8382 99.5737 41.2395C99.5737 41.6408 99.8994 41.9661 100.301 41.9661Z" fill="#3F3D56"/>
<path d="M76.2807 42.6514C76.6825 42.6514 77.0083 42.3261 77.0083 41.9248C77.0083 41.5235 76.6825 41.1982 76.2807 41.1982C75.8788 41.1982 75.553 41.5235 75.553 41.9248C75.553 42.3261 75.8788 42.6514 76.2807 42.6514Z" fill="#3F3D56"/>
<path d="M104.179 34.4361C104.581 34.4361 104.907 34.1108 104.907 33.7095C104.907 33.3082 104.581 32.9829 104.179 32.9829C103.777 32.9829 103.452 33.3082 103.452 33.7095C103.452 34.1108 103.777 34.4361 104.179 34.4361Z" fill="#3F3D56"/>
<path d="M104.159 55.3789C104.561 55.3789 104.886 55.0536 104.886 54.6523C104.886 54.2511 104.561 53.9258 104.159 53.9258C103.757 53.9258 103.431 54.2511 103.431 54.6523C103.431 55.0536 103.757 55.3789 104.159 55.3789Z" fill="#3F3D56"/>
<path d="M118.571 32.9355C118.973 32.9355 119.299 32.6102 119.299 32.2089C119.299 31.8076 118.973 31.4823 118.571 31.4823C118.169 31.4823 117.843 31.8076 117.843 32.2089C117.843 32.6102 118.169 32.9355 118.571 32.9355Z" fill="#3F3D56"/>
<path d="M71.5592 52.809C71.9611 52.809 72.2869 52.4837 72.2869 52.0824C72.2869 51.6811 71.9611 51.3558 71.5592 51.3558C71.1574 51.3558 70.8316 51.6811 70.8316 52.0824C70.8316 52.4837 71.1574 52.809 71.5592 52.809Z" fill="#3F3D56"/>
<path d="M76.8781 63.2598C77.2799 63.2598 77.6057 62.9345 77.6057 62.5332C77.6057 62.1319 77.2799 61.8066 76.8781 61.8066C76.4762 61.8066 76.1504 62.1319 76.1504 62.5332C76.1504 62.9345 76.4762 63.2598 76.8781 63.2598Z" fill="#3F3D56"/>
<path d="M110.294 66.645C111.81 66.645 113.039 65.4177 113.039 63.9038C113.039 62.3899 111.81 61.1626 110.294 61.1626C108.778 61.1626 107.549 62.3899 107.549 63.9038C107.549 65.4177 108.778 66.645 110.294 66.645Z" fill="#FF6584"/>
<path opacity="0.2" d="M112.353 64.0751C112.353 64.6203 112.136 65.1432 111.75 65.5288C111.364 65.9144 110.84 66.131 110.294 66.131C109.748 66.131 109.224 65.9144 108.838 65.5288C108.452 65.1432 108.235 64.6203 108.235 64.0751" fill="black"/>
<path opacity="0.2" d="M108.235 63.7324C108.235 63.1871 108.452 62.6642 108.838 62.2787C109.224 61.8931 109.748 61.6765 110.294 61.6765C110.84 61.6765 111.364 61.8931 111.75 62.2787C112.136 62.6642 112.353 63.1871 112.353 63.7324" fill="black"/>
<path d="M109.265 63.2184C109.359 63.2184 109.436 63.1034 109.436 62.9615C109.436 62.8195 109.359 62.7045 109.265 62.7045C109.17 62.7045 109.093 62.8195 109.093 62.9615C109.093 63.1034 109.17 63.2184 109.265 63.2184Z" fill="#FF6584"/>
<path d="M110.294 62.8758C110.389 62.8758 110.466 62.7607 110.466 62.6188C110.466 62.4769 110.389 62.3618 110.294 62.3618C110.199 62.3618 110.122 62.4769 110.122 62.6188C110.122 62.7607 110.199 62.8758 110.294 62.8758Z" fill="#FF6584"/>
<path d="M110.294 65.1031C110.389 65.1031 110.466 64.988 110.466 64.8461C110.466 64.7042 110.389 64.5891 110.294 64.5891C110.199 64.5891 110.122 64.7042 110.122 64.8461C110.122 64.988 110.199 65.1031 110.294 65.1031Z" fill="#FF6584"/>
<path d="M111.324 63.7325C111.418 63.7325 111.495 63.6174 111.495 63.4755C111.495 63.3336 111.418 63.2185 111.324 63.2185C111.229 63.2185 111.152 63.3336 111.152 63.4755C111.152 63.6174 111.229 63.7325 111.324 63.7325Z" fill="#FF6584"/>
<path d="M111.152 65.617C111.247 65.617 111.324 65.5019 111.324 65.36C111.324 65.2181 111.247 65.103 111.152 65.103C111.057 65.103 110.98 65.2181 110.98 65.36C110.98 65.5019 111.057 65.617 111.152 65.617Z" fill="#FF6584"/>
<path d="M109.093 64.7604C109.188 64.7604 109.265 64.6454 109.265 64.5035C109.265 64.3615 109.188 64.2465 109.093 64.2465C108.998 64.2465 108.921 64.3615 108.921 64.5035C108.921 64.6454 108.998 64.7604 109.093 64.7604Z" fill="#FF6584"/>
<path d="M115.784 59.278C117.301 59.278 118.53 58.0508 118.53 56.5368C118.53 55.0229 117.301 53.7957 115.784 53.7957C114.268 53.7957 113.039 55.0229 113.039 56.5368C113.039 58.0508 114.268 59.278 115.784 59.278Z" fill="#FF6584"/>
<path opacity="0.2" d="M117.843 56.7081C117.843 57.2534 117.626 57.7763 117.24 58.1619C116.854 58.5474 116.331 58.764 115.784 58.764C115.238 58.764 114.715 58.5474 114.329 58.1619C113.942 57.7763 113.726 57.2534 113.726 56.7081" fill="black"/>
<path opacity="0.2" d="M113.726 56.3656C113.726 55.8203 113.942 55.2974 114.329 54.9118C114.715 54.5263 115.238 54.3097 115.784 54.3097C116.331 54.3097 116.854 54.5263 117.24 54.9118C117.626 55.2974 117.843 55.8203 117.843 56.3656" fill="black"/>
<path d="M114.755 55.8516C114.85 55.8516 114.927 55.7366 114.927 55.5946C114.927 55.4527 114.85 55.3376 114.755 55.3376C114.66 55.3376 114.583 55.4527 114.583 55.5946C114.583 55.7366 114.66 55.8516 114.755 55.8516Z" fill="#FF6584"/>
<path d="M115.784 55.509C115.879 55.509 115.956 55.3939 115.956 55.252C115.956 55.1101 115.879 54.995 115.784 54.995C115.69 54.995 115.613 55.1101 115.613 55.252C115.613 55.3939 115.69 55.509 115.784 55.509Z" fill="#FF6584"/>
<path d="M115.784 57.7361C115.879 57.7361 115.956 57.6211 115.956 57.4792C115.956 57.3372 115.879 57.2222 115.784 57.2222C115.69 57.2222 115.613 57.3372 115.613 57.4792C115.613 57.6211 115.69 57.7361 115.784 57.7361Z" fill="#FF6584"/>
<path d="M116.814 56.3655C116.909 56.3655 116.985 56.2505 116.985 56.1085C116.985 55.9666 116.909 55.8516 116.814 55.8516C116.719 55.8516 116.642 55.9666 116.642 56.1085C116.642 56.2505 116.719 56.3655 116.814 56.3655Z" fill="#FF6584"/>
<path d="M116.642 58.2501C116.737 58.2501 116.814 58.135 116.814 57.9931C116.814 57.8511 116.737 57.7361 116.642 57.7361C116.548 57.7361 116.471 57.8511 116.471 57.9931C116.471 58.135 116.548 58.2501 116.642 58.2501Z" fill="#FF6584"/>
<path d="M114.583 57.3935C114.678 57.3935 114.755 57.2784 114.755 57.1365C114.755 56.9946 114.678 56.8795 114.583 56.8795C114.489 56.8795 114.412 56.9946 114.412 57.1365C114.412 57.2784 114.489 57.3935 114.583 57.3935Z" fill="#FF6584"/>
<path d="M121.275 63.0472C122.791 63.0472 124.02 61.8199 124.02 60.306C124.02 58.7921 122.791 57.5648 121.275 57.5648C119.759 57.5648 118.53 58.7921 118.53 60.306C118.53 61.8199 119.759 63.0472 121.275 63.0472Z" fill="#EB1700"/>
<path opacity="0.2" d="M123.334 60.4773C123.334 61.0226 123.117 61.5455 122.731 61.931C122.345 62.3166 121.821 62.5332 121.275 62.5332C120.729 62.5332 120.205 62.3166 119.819 61.931C119.433 61.5455 119.216 61.0226 119.216 60.4773" fill="black"/>
<path opacity="0.2" d="M119.216 60.1346C119.216 59.5894 119.433 59.0664 119.819 58.6809C120.205 58.2953 120.729 58.0787 121.275 58.0787C121.821 58.0787 122.345 58.2953 122.731 58.6809C123.117 59.0664 123.334 59.5894 123.334 60.1346" fill="black"/>
<path d="M120.245 59.6207C120.34 59.6207 120.417 59.5056 120.417 59.3637C120.417 59.2217 120.34 59.1067 120.245 59.1067C120.151 59.1067 120.074 59.2217 120.074 59.3637C120.074 59.5056 120.151 59.6207 120.245 59.6207Z" fill="#EB1700"/>
<path d="M121.275 59.278C121.37 59.278 121.446 59.163 121.446 59.021C121.446 58.8791 121.37 58.764 121.275 58.764C121.18 58.764 121.103 58.8791 121.103 59.021C121.103 59.163 121.18 59.278 121.275 59.278Z" fill="#EB1700"/>
<path d="M121.275 61.5052C121.37 61.5052 121.446 61.3901 121.446 61.2482C121.446 61.1063 121.37 60.9912 121.275 60.9912C121.18 60.9912 121.103 61.1063 121.103 61.2482C121.103 61.3901 121.18 61.5052 121.275 61.5052Z" fill="#EB1700"/>
<path d="M122.304 60.1347C122.399 60.1347 122.476 60.0196 122.476 59.8777C122.476 59.7358 122.399 59.6207 122.304 59.6207C122.21 59.6207 122.133 59.7358 122.133 59.8777C122.133 60.0196 122.21 60.1347 122.304 60.1347Z" fill="#EB1700"/>
<path d="M122.133 62.0192C122.228 62.0192 122.304 61.9042 122.304 61.7622C122.304 61.6203 122.228 61.5052 122.133 61.5052C122.038 61.5052 121.961 61.6203 121.961 61.7622C121.961 61.9042 122.038 62.0192 122.133 62.0192Z" fill="#EB1700"/>
<path d="M120.074 61.1627C120.169 61.1627 120.245 61.0476 120.245 60.9057C120.245 60.7637 120.169 60.6487 120.074 60.6487C119.979 60.6487 119.902 60.7637 119.902 60.9057C119.902 61.0476 119.979 61.1627 120.074 61.1627Z" fill="#EB1700"/>
<path d="M107.549 63.3898C109.065 63.3898 110.294 62.1626 110.294 60.6486C110.294 59.1347 109.065 57.9075 107.549 57.9075C106.033 57.9075 104.804 59.1347 104.804 60.6486C104.804 62.1626 106.033 63.3898 107.549 63.3898Z" fill="#EB1700"/>
<path opacity="0.2" d="M109.608 60.8199C109.608 61.3652 109.391 61.8881 109.005 62.2737C108.619 62.6592 108.095 62.8758 107.549 62.8758C107.003 62.8758 106.479 62.6592 106.093 62.2737C105.707 61.8881 105.49 61.3652 105.49 60.8199" fill="black"/>
<path opacity="0.2" d="M105.49 60.4773C105.49 59.932 105.707 59.4091 106.093 59.0235C106.479 58.638 107.003 58.4214 107.549 58.4214C108.095 58.4214 108.619 58.638 109.005 59.0235C109.391 59.4091 109.608 59.932 109.608 60.4773" fill="black"/>
<path d="M106.519 59.9633C106.614 59.9633 106.691 59.8483 106.691 59.7063C106.691 59.5644 106.614 59.4493 106.519 59.4493C106.425 59.4493 106.348 59.5644 106.348 59.7063C106.348 59.8483 106.425 59.9633 106.519 59.9633Z" fill="#EB1700"/>
<path d="M107.549 59.6207C107.644 59.6207 107.72 59.5056 107.72 59.3637C107.72 59.2217 107.644 59.1067 107.549 59.1067C107.454 59.1067 107.377 59.2217 107.377 59.3637C107.377 59.5056 107.454 59.6207 107.549 59.6207Z" fill="#EB1700"/>
<path d="M107.549 61.8478C107.644 61.8478 107.72 61.7328 107.72 61.5908C107.72 61.4489 107.644 61.3339 107.549 61.3339C107.454 61.3339 107.377 61.4489 107.377 61.5908C107.377 61.7328 107.454 61.8478 107.549 61.8478Z" fill="#EB1700"/>
<path d="M108.578 60.4773C108.673 60.4773 108.75 60.3623 108.75 60.2204C108.75 60.0784 108.673 59.9634 108.578 59.9634C108.483 59.9634 108.407 60.0784 108.407 60.2204C108.407 60.3623 108.483 60.4773 108.578 60.4773Z" fill="#EB1700"/>
<path d="M108.407 62.3619C108.501 62.3619 108.578 62.2468 108.578 62.1049C108.578 61.963 108.501 61.8479 108.407 61.8479C108.312 61.8479 108.235 61.963 108.235 62.1049C108.235 62.2468 108.312 62.3619 108.407 62.3619Z" fill="#EB1700"/>
<path d="M106.348 61.5052C106.443 61.5052 106.519 61.3901 106.519 61.2482C106.519 61.1063 106.443 60.9912 106.348 60.9912C106.253 60.9912 106.176 61.1063 106.176 61.2482C106.176 61.3901 106.253 61.5052 106.348 61.5052Z" fill="#EB1700"/>
<path d="M113.726 64.589C115.242 64.589 116.471 63.3618 116.471 61.8479C116.471 60.334 115.242 59.1067 113.726 59.1067C112.209 59.1067 110.98 60.334 110.98 61.8479C110.98 63.3618 112.209 64.589 113.726 64.589Z" fill="#EB1700"/>
<path opacity="0.2" d="M115.784 62.0192C115.784 62.2891 115.731 62.5565 115.628 62.8059C115.524 63.0553 115.373 63.282 115.181 63.4729C114.99 63.6638 114.763 63.8152 114.513 63.9186C114.264 64.0219 113.996 64.0751 113.726 64.0751C113.455 64.0751 113.187 64.0219 112.938 63.9186C112.688 63.8152 112.461 63.6638 112.27 63.4729C112.078 63.282 111.927 63.0553 111.823 62.8059C111.72 62.5565 111.667 62.2891 111.667 62.0192" fill="black"/>
<path opacity="0.2" d="M111.667 61.6766C111.667 61.4066 111.72 61.1393 111.823 60.8899C111.927 60.6404 112.078 60.4138 112.27 60.2229C112.461 60.032 112.688 59.8805 112.938 59.7772C113.187 59.6739 113.455 59.6207 113.726 59.6207C113.996 59.6207 114.264 59.6739 114.513 59.7772C114.763 59.8805 114.99 60.032 115.181 60.2229C115.373 60.4138 115.524 60.6404 115.628 60.8899C115.731 61.1393 115.784 61.4066 115.784 61.6766" fill="black"/>
<path d="M112.696 61.1627C112.791 61.1627 112.868 61.0476 112.868 60.9057C112.868 60.7637 112.791 60.6487 112.696 60.6487C112.601 60.6487 112.525 60.7637 112.525 60.9057C112.525 61.0476 112.601 61.1627 112.696 61.1627Z" fill="#EB1700"/>
<path d="M113.726 60.82C113.82 60.82 113.897 60.7049 113.897 60.563C113.897 60.4211 113.82 60.306 113.726 60.306C113.631 60.306 113.554 60.4211 113.554 60.563C113.554 60.7049 113.631 60.82 113.726 60.82Z" fill="#EB1700"/>
<path d="M113.726 63.0472C113.82 63.0472 113.897 62.9321 113.897 62.7902C113.897 62.6483 113.82 62.5332 113.726 62.5332C113.631 62.5332 113.554 62.6483 113.554 62.7902C113.554 62.9321 113.631 63.0472 113.726 63.0472Z" fill="#EB1700"/>
<path d="M114.755 61.6766C114.85 61.6766 114.927 61.5615 114.927 61.4196C114.927 61.2777 114.85 61.1626 114.755 61.1626C114.66 61.1626 114.583 61.2777 114.583 61.4196C114.583 61.5615 114.66 61.6766 114.755 61.6766Z" fill="#EB1700"/>
<path d="M114.583 63.5611C114.678 63.5611 114.755 63.446 114.755 63.3041C114.755 63.1622 114.678 63.0471 114.583 63.0471C114.489 63.0471 114.412 63.1622 114.412 63.3041C114.412 63.446 114.489 63.5611 114.583 63.5611Z" fill="#EB1700"/>
<path d="M112.525 62.7045C112.619 62.7045 112.696 62.5895 112.696 62.4475C112.696 62.3056 112.619 62.1906 112.525 62.1906C112.43 62.1906 112.353 62.3056 112.353 62.4475C112.353 62.5895 112.43 62.7045 112.525 62.7045Z" fill="#EB1700"/>
<path d="M118.015 67.5015C119.531 67.5015 120.76 66.2743 120.76 64.7603C120.76 63.2464 119.531 62.0192 118.015 62.0192C116.499 62.0192 115.27 63.2464 115.27 64.7603C115.27 66.2743 116.499 67.5015 118.015 67.5015Z" fill="#FF6584"/>
<path opacity="0.2" d="M120.074 64.9318C120.074 65.477 119.857 65.9999 119.471 66.3855C119.085 66.771 118.561 66.9876 118.015 66.9876C117.469 66.9876 116.945 66.771 116.559 66.3855C116.173 65.9999 115.956 65.477 115.956 64.9318" fill="black"/>
<path opacity="0.2" d="M115.956 64.5891C115.956 64.0438 116.173 63.5209 116.559 63.1354C116.945 62.7498 117.469 62.5332 118.015 62.5332C118.561 62.5332 119.085 62.7498 119.471 63.1354C119.857 63.5209 120.074 64.0438 120.074 64.5891" fill="black"/>
<path d="M116.986 64.0751C117.08 64.0751 117.157 63.9601 117.157 63.8181C117.157 63.6762 117.08 63.5612 116.986 63.5612C116.891 63.5612 116.814 63.6762 116.814 63.8181C116.814 63.9601 116.891 64.0751 116.986 64.0751Z" fill="#FF6584"/>
<path d="M118.015 63.7325C118.11 63.7325 118.187 63.6174 118.187 63.4755C118.187 63.3336 118.11 63.2185 118.015 63.2185C117.92 63.2185 117.843 63.3336 117.843 63.4755C117.843 63.6174 117.92 63.7325 118.015 63.7325Z" fill="#FF6584"/>
<path d="M118.015 65.9596C118.11 65.9596 118.187 65.8446 118.187 65.7027C118.187 65.5607 118.11 65.4457 118.015 65.4457C117.92 65.4457 117.843 65.5607 117.843 65.7027C117.843 65.8446 117.92 65.9596 118.015 65.9596Z" fill="#FF6584"/>
<path d="M119.044 64.589C119.139 64.589 119.216 64.474 119.216 64.3321C119.216 64.1901 119.139 64.0751 119.044 64.0751C118.95 64.0751 118.873 64.1901 118.873 64.3321C118.873 64.474 118.95 64.589 119.044 64.589Z" fill="#FF6584"/>
<path d="M118.873 66.4737C118.968 66.4737 119.044 66.3586 119.044 66.2167C119.044 66.0748 118.968 65.9597 118.873 65.9597C118.778 65.9597 118.701 66.0748 118.701 66.2167C118.701 66.3586 118.778 66.4737 118.873 66.4737Z" fill="#FF6584"/>
<path d="M116.814 65.617C116.909 65.617 116.985 65.5019 116.985 65.36C116.985 65.2181 116.909 65.103 116.814 65.103C116.719 65.103 116.642 65.2181 116.642 65.36C116.642 65.5019 116.719 65.617 116.814 65.617Z" fill="#FF6584"/>
<path d="M82.7117 55.0362C83.1135 55.0362 83.4393 54.7109 83.4393 54.3096C83.4393 53.9083 83.1135 53.583 82.7117 53.583C82.3098 53.583 81.984 53.9083 81.984 54.3096C81.984 54.7109 82.3098 55.0362 82.7117 55.0362Z" fill="#3F3D56"/>
<path d="M102.491 80.6827L85.015 75.8435L85.6844 73.3605L103.16 78.1999L102.491 80.6827Z" fill="#F9A825"/>
<path d="M99.9287 79.8529C93.9443 80.9968 87.7969 80.9968 81.8124 79.8529V77.2791C87.8103 78.2717 93.9308 78.2717 99.9287 77.2791V79.8529Z" fill="#F9A825"/>
<path d="M101.791 72.1314C95.8067 73.2753 89.6592 73.2753 83.6748 72.1314V69.5575C89.6727 70.5501 95.7932 70.5501 101.791 69.5575V72.1314Z" fill="#F9A825"/>
<path d="M108.056 75.22C102.071 76.3639 95.9238 76.3639 89.9394 75.22V72.6461C95.9372 73.6387 102.058 73.6387 108.056 72.6461V75.22Z" fill="#F9A825"/>
<path d="M109.579 78.137C103.595 79.2809 97.4475 79.2809 91.4631 78.137V75.5631C97.461 76.5557 103.582 76.5557 109.579 75.5631V78.137Z" fill="#F9A825"/>
<path d="M114.892 81.9486L97.0187 84.9464L96.6042 82.407L114.477 79.4092L114.892 81.9486Z" fill="#F9A825"/>
<path d="M112.222 82.2787C107.267 85.8454 101.682 88.4464 95.7608 89.945L94.7003 87.6063C100.57 85.9652 106.13 83.3755 111.162 79.9399L112.222 82.2787Z" fill="#F9A825"/>
<path d="M110.733 74.4742C105.778 78.0409 100.193 80.6419 94.2717 82.1406L93.2113 79.8018C99.0807 78.1607 104.641 75.571 109.673 72.1355L110.733 74.4742Z" fill="#F9A825"/>
<path d="M117.698 74.6298C112.743 78.1965 107.158 80.7974 101.237 82.2961L100.176 79.9574C106.045 78.3163 111.606 75.7266 116.637 72.291L117.698 74.6298Z" fill="#F9A825"/>
<path d="M120.284 76.6355C115.329 80.2022 109.744 82.8032 103.823 84.3018L102.763 81.9631C108.632 80.322 114.193 77.7323 119.224 74.2968L120.284 76.6355Z" fill="#F9A825"/>
<path d="M98.6269 71.6134H97.769V72.47H98.6269V71.6134Z" fill="#00BF71"/>
<path d="M101.201 86.5186H100.343V87.3752H101.201V86.5186Z" fill="#00BF71"/>
<path d="M87.4744 71.6134H86.6165V72.47H87.4744V71.6134Z" fill="#00BF71"/>
<path d="M107.377 82.2355H106.519V83.0921H107.377V82.2355Z" fill="#00BF71"/>
<path d="M107.892 77.2671H107.034V78.1237H107.892V77.2671Z" fill="#00BF71"/>
<path d="M93.7402 74.9216L92.7464 74.2483L92.361 74.8154L93.3549 75.4887L93.7402 74.9216Z" fill="#00BF71"/>
<path d="M103.863 76.8061L102.869 76.1328L102.484 76.6999L103.478 77.3732L103.863 76.8061Z" fill="#00BF71"/>
<path d="M91.5097 80.0614L90.5159 79.3881L90.1306 79.9551L91.1244 80.6285L91.5097 80.0614Z" fill="#00BF71"/>
<path d="M97.8016 80.0114L98.4759 79.019L97.908 78.6343L97.2337 79.6267L97.8016 80.0114Z" fill="#00BF71"/>
<path d="M102.434 81.2108L103.108 80.2184L102.541 79.8336L101.866 80.826L102.434 81.2108Z" fill="#00BF71"/>
<path d="M114.789 77.0987L115.463 76.1063L114.895 75.7216L114.221 76.714L114.789 77.0987Z" fill="#00BF71"/>
</svg>
